<svg width="33" height="34" viewBox="0 0 33 34" fill="none" xmlns="http://www.w3.org/2000/svg">
<path d="M28.7509 14.0337C29.1998 13.9896 29.5292 13.5983 29.5292 13.5983C29.5292 13.5983 29.1302 13.2783 28.6804 13.3225C28.6258 13.3276 28.5717 13.3381 28.5191 13.3539C28.5975 13.2261 28.6392 13.0793 28.6397 12.9295C28.5522 12.9367 28.4663 12.9573 28.385 12.9906C28.5242 11.7523 28.0846 10.4953 27.0712 9.42585C27.1113 9.43326 27.1518 9.43808 27.1926 9.44028C27.6611 9.46065 28.0566 9.10587 28.0566 9.10587C28.0566 9.10587 27.7171 8.74685 27.2732 8.70271C27.3748 8.64588 27.4701 8.57846 27.5575 8.50156C28.161 7.9643 28.2246 7.05019 28.2246 7.05019C28.2246 7.05019 27.3097 7.00775 26.7062 7.54501C26.6331 7.61066 26.5658 7.68251 26.5051 7.75975C26.4836 7.49185 26.3891 7.23497 26.2318 7.01709C26.1799 7.06151 26.1313 7.10974 26.0866 7.16138C25.4764 5.17021 23.6388 3.80796 21.1944 3.58644C21.2442 3.51164 21.2858 3.43167 21.3183 3.34794C21.3183 3.34794 20.9279 3.21893 20.585 3.36406C20.6372 3.28207 20.6805 3.19472 20.714 3.1035C20.9423 2.47118 20.6292 1.77859 20.6292 1.77859C20.6292 1.77859 19.9434 2.10961 19.715 2.74108C19.6877 2.8181 19.667 2.89733 19.6531 2.97788C19.5315 2.79034 19.3606 2.63997 19.1591 2.54332C19.1223 2.63979 19.0975 2.74041 19.0853 2.84293C18.0144 2.17755 16.7658 1.85536 15.5067 1.91953C14.2477 1.9837 13.0383 2.43116 12.0406 3.20195C12.0392 3.01577 11.9972 2.83213 11.9176 2.66384C11.9176 2.66384 11.556 2.86245 11.4295 3.21129C11.4049 3.11742 11.3704 3.02639 11.3268 2.93969C11.0196 2.34556 10.2981 2.10027 10.2981 2.10027C10.2981 2.10027 10.0724 2.82765 10.383 3.42517C10.4202 3.49778 10.4639 3.56682 10.5137 3.63142C10.2937 3.59301 10.0674 3.61561 9.85934 3.69677C9.8861 3.7524 9.91732 3.80576 9.9527 3.85634C7.78414 4.24252 6.19867 5.54366 5.65208 7.34726C5.58129 7.28962 5.50544 7.23849 5.42546 7.19448C5.42546 7.19448 5.21243 7.64007 5.33125 8.07039C5.24173 7.99587 5.14441 7.93128 5.04098 7.87773C4.32293 7.50767 3.44702 7.77757 3.44702 7.77757C3.44702 7.77757 3.73645 8.64669 4.45534 9.0159C4.54292 9.06086 4.63439 9.09779 4.72864 9.12624C4.48644 9.2424 4.28089 9.42299 4.13451 9.64822C4.33031 9.75306 4.54675 9.81361 4.76853 9.82561C2.8826 11.9738 3.1907 14.7416 5.65547 16.6411C5.65547 16.8108 5.65547 16.9713 5.67245 17.1325C5.46653 17.1137 5.25895 17.1368 5.0622 17.2004C5.0622 17.2004 5.23959 17.6613 5.6351 17.8684C5.51947 17.8835 5.4057 17.9105 5.2956 17.949C4.53173 18.2189 4.13112 19.0405 4.13112 19.0405C4.13112 19.0405 4.96204 19.425 5.72337 19.1551C5.81608 19.1224 5.90558 19.0812 5.99073 19.032C5.96155 19.1115 5.94161 19.1941 5.93132 19.2782C5.93085 19.2875 5.93085 19.2968 5.93132 19.3062C5.91457 19.4792 5.92662 19.6539 5.96697 19.8231C6.16149 19.7573 6.34096 19.6534 6.49489 19.5175H6.50932C6.5229 19.537 6.53733 19.5557 6.55176 19.5744C6.50174 19.6198 6.45521 19.6688 6.41256 19.7212C5.99328 20.2466 6.06882 21.0037 6.06882 21.0037C6.06882 21.0037 6.81826 20.9095 7.24264 20.3832L7.25961 20.3595C7.3725 20.4596 7.48284 20.5411 7.60591 20.6319C7.65938 20.6761 7.69078 20.7049 7.72388 20.7261C8.80859 21.49 10.254 21.8923 11.9065 21.8083C14.4579 24.0745 18.116 24.0006 20.5443 21.6343C22.0585 21.6504 23.3791 21.2642 24.3917 20.5827C24.4563 20.7176 24.5567 20.8321 24.6819 20.9137C24.7629 20.7659 24.7944 20.5961 24.7719 20.4291C24.8186 20.4747 24.8701 20.5151 24.9255 20.5496C25.3092 20.7864 25.8082 20.6735 25.8082 20.6735C25.8082 20.6735 25.6843 20.1778 25.299 19.941C25.2715 19.9243 25.2432 19.909 25.2141 19.8952C25.2498 19.8579 25.2846 19.8205 25.3185 19.7832C25.39 19.7326 25.4535 19.6717 25.5069 19.6024L25.4849 19.5888C26.2131 18.6857 26.5942 17.5255 26.5093 16.2184C27.2732 15.5759 27.7994 14.8528 28.1041 14.0965C28.143 14.1897 28.2039 14.2721 28.2815 14.3367C28.4276 14.4372 28.6038 14.4842 28.7806 14.47C28.7555 14.3035 28.6779 14.1495 28.559 14.0303C28.6227 14.038 28.687 14.0392 28.7509 14.0337Z" fill="#047857"/>
<path fill-rule="evenodd" clip-rule="evenodd" d="M20.7721 1.71392L20.6291 1.7786L20.5609 1.63724L20.7058 1.56728L20.7721 1.71392ZM20.8672 3.14114C20.9885 2.79254 20.963 2.43611 20.9112 2.17354C20.8846 2.03901 20.8505 1.92564 20.8229 1.84553C20.809 1.80539 20.7967 1.77338 20.7877 1.75099C20.7832 1.73979 20.7795 1.73098 20.7769 1.72474L20.7736 1.71734L20.7727 1.71512L20.7723 1.71439L20.7721 1.71392C20.7721 1.71387 20.7721 1.71392 20.6291 1.7786C20.5609 1.63724 20.5609 1.63721 20.5609 1.63724L20.5604 1.63746L20.5597 1.63781L20.5575 1.63888L20.5503 1.64251C20.5442 1.64558 20.5357 1.64998 20.5251 1.65569C20.5038 1.6671 20.4738 1.6838 20.4373 1.70575C20.3647 1.74954 20.2657 1.81471 20.159 1.90097C19.9557 2.06536 19.7142 2.31456 19.5824 2.64789C19.4782 2.54804 19.3583 2.4648 19.2269 2.40179L19.0732 2.32804L19.0124 2.48737C18.9989 2.52279 18.9868 2.5587 18.9762 2.59503C17.9223 1.99053 16.7152 1.70077 15.4987 1.76277C14.2996 1.82388 13.1445 2.22403 12.1664 2.91395C12.1433 2.80471 12.1074 2.69822 12.0594 2.5967L11.9873 2.44447L11.8406 2.52704C11.8137 2.542 11.7214 2.5974 11.6173 2.68881C11.5668 2.73317 11.5113 2.78794 11.4584 2.85278C11.2859 2.52845 11.0074 2.30475 10.7799 2.16376C10.6633 2.09149 10.557 2.03904 10.4795 2.00451C10.4407 1.98721 10.4089 1.97431 10.3863 1.96559C10.3751 1.96123 10.3661 1.9579 10.3597 1.95559L10.3521 1.95288L10.3499 1.95209L10.3491 1.95183L10.3487 1.95169C10.3487 1.95168 10.3486 1.95166 10.2981 2.10027L10.3487 1.95169L10.196 1.89976L10.1482 2.05374L10.2981 2.10027C10.1482 2.05374 10.1482 2.05369 10.1482 2.05374L10.148 2.05424L10.1478 2.05501L10.1471 2.05734L10.1448 2.06511C10.1429 2.07165 10.1403 2.08088 10.1372 2.09258C10.1311 2.11597 10.1228 2.14932 10.1141 2.19094C10.0966 2.27402 10.0768 2.39095 10.0674 2.5279C10.0495 2.78868 10.0682 3.13501 10.2241 3.45852C10.0802 3.46682 9.93778 3.49767 9.80224 3.55054L9.64437 3.61212L9.70777 3.74391C7.68267 4.16822 6.16935 5.3947 5.56906 7.09647C5.54672 7.08278 5.52405 7.0696 5.50107 7.05696L5.42195 7.19283C5.28379 7.12678 5.28377 7.12682 5.28375 7.12686L5.2836 7.12719L5.28332 7.12777L5.28255 7.12941L5.28015 7.13463C5.27818 7.13896 5.2755 7.14497 5.27225 7.15253C5.26576 7.16766 5.25695 7.18909 5.24693 7.21591C5.22695 7.2694 5.20187 7.3451 5.18085 7.43552C5.1598 7.52606 5.14209 7.63443 5.13875 7.75189C5.13024 7.7473 5.12168 7.74278 5.11309 7.73834C4.71846 7.53496 4.28721 7.51006 3.96391 7.53228C3.80094 7.54348 3.66175 7.56687 3.56291 7.58754C3.51341 7.59789 3.47381 7.60761 3.44614 7.61488C3.4323 7.61851 3.42143 7.62154 3.41378 7.62373L3.40476 7.62636L3.40211 7.62715L3.40096 7.6275C3.40091 7.62752 3.40074 7.62757 3.44695 7.77753L3.40096 7.6275L3.24731 7.67484L3.29804 7.82717L3.44695 7.77753C3.29803 7.82713 3.29802 7.82712 3.29804 7.82717L3.29821 7.82769L3.2985 7.82852L3.29939 7.83114L3.30249 7.84001C3.30516 7.8475 3.30902 7.8581 3.3141 7.87147C3.32427 7.89819 3.33938 7.93605 3.35973 7.98233C3.40036 8.07472 3.46225 8.20153 3.54788 8.34059C3.71756 8.61614 3.98785 8.95181 4.38212 9.15479C4.23374 9.26735 4.10522 9.40516 4.00284 9.56269L3.90973 9.70595L4.06036 9.7866C4.18925 9.85561 4.32624 9.90724 4.46775 9.94047C3.63028 10.9917 3.27923 12.1797 3.42467 13.346C3.57762 14.5726 4.27712 15.7559 5.49851 16.7178C5.49869 16.8015 5.49953 16.8853 5.50325 16.9695C5.33733 16.9724 5.17241 16.9998 5.01387 17.0511L5.06214 17.2004L4.90986 17.2385L4.95059 17.4014L4.97931 17.3921C5.00259 17.436 5.03256 17.488 5.06955 17.5436C5.12107 17.6211 5.18795 17.7085 5.27146 17.7914C5.26221 17.7945 5.25298 17.7976 5.24377 17.8008L5.24325 17.801C4.82357 17.9493 4.51036 18.246 4.30536 18.4966C4.20204 18.6229 4.12398 18.7402 4.07154 18.8263C4.04528 18.8694 4.02532 18.9048 4.01173 18.93C4.00493 18.9425 3.99971 18.9525 3.99608 18.9596L3.99183 18.968L3.9906 18.9704L3.99021 18.9712L3.99007 18.9715C3.99005 18.9716 3.98997 18.9717 4.13106 19.0405L3.99007 18.9715L3.91977 19.1157L4.06514 19.183L4.13106 19.0405C4.06514 19.183 4.06509 19.1829 4.06514 19.183L4.06564 19.1832L4.06644 19.1836L4.06896 19.1847L4.07754 19.1885C4.08482 19.1917 4.09518 19.1962 4.10839 19.2016C4.13481 19.2125 4.17272 19.2274 4.22035 19.2443C4.31544 19.278 4.45013 19.3198 4.61003 19.3528C4.92674 19.418 5.35609 19.4513 5.77385 19.3037C5.75722 19.4899 5.77084 19.6776 5.81423 19.8595L5.85416 20.0269L6.01719 19.9718C6.04299 19.963 6.06855 19.9537 6.09386 19.9438C5.99831 20.1513 5.95094 20.3629 5.92777 20.539C5.90989 20.675 5.90598 20.7934 5.90654 20.8782C5.90683 20.9207 5.90824 20.955 5.90962 20.9791C5.91032 20.9912 5.911 21.0007 5.91154 21.0075L5.91222 21.0155L5.91244 21.0179L5.91252 21.0187L5.91256 21.0192C5.91256 21.0192 5.91257 21.0193 6.06876 21.0037L5.91256 21.0192L5.92856 21.1795L6.08834 21.1594L6.06876 21.0037C6.08834 21.1594 6.08828 21.1594 6.08834 21.1594L6.08885 21.1594L6.08965 21.1592L6.09204 21.1589L6.10001 21.1578C6.1067 21.1568 6.1161 21.1554 6.12795 21.1534C6.15164 21.1494 6.1852 21.1431 6.22648 21.134C6.30888 21.1157 6.42294 21.0856 6.5512 21.0379C6.77556 20.9546 7.05312 20.8139 7.27801 20.5801C7.35411 20.6412 7.4303 20.6975 7.50916 20.7557C7.51819 20.7631 7.52728 20.7708 7.53639 20.7785C7.56963 20.8065 7.60324 20.8348 7.63592 20.8562C8.73892 21.6321 10.1959 22.0401 11.8504 21.9681C14.4441 24.2307 18.1347 24.1572 20.6072 21.7917C22.0549 21.7964 23.3334 21.4386 24.341 20.803C24.4104 20.8982 24.4967 20.9804 24.5962 21.0452L24.7381 21.1377L24.8196 20.9891C24.8652 20.9057 24.8978 20.8165 24.9166 20.7245C25.1226 20.8294 25.3422 20.856 25.5094 20.8573C25.6044 20.8581 25.6861 20.8507 25.7445 20.8431C25.7738 20.8393 25.7974 20.8354 25.8141 20.8323C25.8225 20.8308 25.8292 20.8295 25.834 20.8285L25.8399 20.8273L25.8417 20.8269L25.8423 20.8267L25.8427 20.8266C25.8428 20.8266 25.8428 20.8266 25.8082 20.6735L25.8427 20.8266L25.9994 20.7912L25.9605 20.6354L25.8082 20.6735C25.9605 20.6354 25.9605 20.6355 25.9605 20.6354L25.9603 20.635L25.9597 20.6325L25.9582 20.6267C25.9569 20.622 25.955 20.6154 25.9526 20.6073C25.9478 20.591 25.9407 20.5681 25.9309 20.5403C25.9114 20.4848 25.8811 20.4086 25.8376 20.3241C25.7632 20.1798 25.6452 20.0022 25.4676 19.8667C25.5283 19.817 25.5832 19.7605 25.6312 19.6982L25.7377 19.5601L25.7161 19.5468C26.3843 18.6525 26.7343 17.534 26.6705 16.2873C27.3335 15.7169 27.8194 15.083 28.1353 14.4162C28.15 14.4305 28.1652 14.4442 28.181 14.4574L28.1866 14.462L28.1925 14.4661C28.3683 14.587 28.5804 14.6436 28.7931 14.6264L28.9607 14.6129L28.9357 14.4466C28.9216 14.3528 28.8935 14.2622 28.8529 14.1777C29.079 14.1359 29.2688 14.0248 29.4022 13.9253C29.4783 13.8684 29.539 13.8132 29.5809 13.7719C29.6019 13.7512 29.6183 13.7338 29.6298 13.7213C29.6356 13.715 29.6401 13.7099 29.6433 13.7062L29.6472 13.7017L29.6485 13.7003L29.6489 13.6998L29.6491 13.6995C29.6492 13.6994 29.6492 13.6994 29.5291 13.5983L29.6491 13.6995L29.7527 13.5764L29.6273 13.4759L29.5291 13.5983C29.6273 13.4759 29.6274 13.4759 29.6273 13.4759L29.627 13.4756L29.6264 13.4752L29.625 13.474L29.6202 13.4703C29.6163 13.4673 29.6109 13.4632 29.604 13.4582C29.5903 13.4481 29.5708 13.4342 29.5462 13.418C29.4971 13.3856 29.4268 13.3432 29.3411 13.3022C29.1941 13.232 28.992 13.1616 28.7679 13.1613C28.7866 13.086 28.7963 13.0084 28.7966 12.93L28.7972 12.759L28.6267 12.7731C28.6044 12.7749 28.5823 12.7775 28.5603 12.7808C28.6241 11.6678 28.2392 10.5557 27.4208 9.58182C27.5988 9.55161 27.7558 9.48396 27.8755 9.41842C27.9618 9.3712 28.032 9.32334 28.0809 9.28705C28.1055 9.26885 28.1248 9.25342 28.1384 9.24224C28.1452 9.23664 28.1506 9.2321 28.1544 9.22879L28.159 9.22476L28.1605 9.22349L28.161 9.22304L28.1613 9.22279C28.1613 9.22275 28.1613 9.22272 28.0565 9.10587L28.1613 9.22279L28.2813 9.11511L28.1706 8.99802L28.0565 9.10587C28.1706 8.99802 28.1706 8.99806 28.1706 8.99802L28.1703 8.99769L28.1698 8.99723L28.1686 8.99592L28.1646 8.9918C28.1612 8.98841 28.1566 8.98376 28.1507 8.97801C28.1389 8.96651 28.1221 8.95059 28.1006 8.9316C28.0579 8.89372 27.9963 8.84311 27.9194 8.79097C27.8426 8.73881 27.7479 8.68335 27.6397 8.63797C27.6469 8.63184 27.654 8.62566 27.6611 8.61941L27.6618 8.6188C27.9934 8.32357 28.1716 7.93036 28.2673 7.62074C28.3155 7.46466 28.3438 7.3264 28.3601 7.22677C28.3683 7.17687 28.3735 7.13643 28.3767 7.10801C28.3782 7.09379 28.3793 7.08256 28.3801 7.07464L28.3808 7.06528L28.3811 7.06253L28.3811 7.06164L28.3811 7.06133C28.3812 7.06128 28.3812 7.0611 28.2246 7.05019L28.3811 7.06133L28.3923 6.90084L28.2318 6.8934L28.2246 7.05019C28.2318 6.8934 28.2319 6.8934 28.2318 6.8934L28.2304 6.89333L28.2277 6.89323L28.2183 6.89294C28.2103 6.89273 28.199 6.89252 28.1847 6.89246C28.1562 6.89233 28.1154 6.89282 28.0649 6.89516C27.9641 6.89984 27.8235 6.91196 27.663 6.94181C27.3449 7.00095 26.9344 7.13223 26.6031 7.42664C26.5514 7.24745 26.4691 7.07769 26.359 6.92519L26.2592 6.787L26.1562 6.87511C25.477 5.00763 23.7263 3.73356 21.4439 3.45511C21.4511 3.4385 21.458 3.42174 21.4646 3.40485L21.5273 3.24366L21.3608 3.19683C21.3668 3.19854 21.1422 3.12285 20.8672 3.14114ZM21.0885 3.46046C20.9648 3.44525 20.7981 3.44431 20.6461 3.50862L20.1817 3.70522L20.4526 3.27976C20.4986 3.20739 20.5368 3.13029 20.5665 3.04978C20.667 2.77115 20.6501 2.47207 20.6032 2.23431C20.586 2.14732 20.5652 2.07037 20.5458 2.00807C20.4909 2.04349 20.4254 2.08926 20.3563 2.1451C20.1678 2.29755 19.9633 2.51616 19.8627 2.79409C19.8384 2.86254 19.82 2.93293 19.8077 3.00451L19.7396 3.40013L19.5213 3.06325C19.45 2.95315 19.3591 2.85777 19.2536 2.78151C19.2485 2.808 19.2443 2.8347 19.2411 2.86154L19.2118 3.10641L19.0024 2.97626C17.9587 2.32777 16.7418 2.01375 15.5147 2.07629C14.2876 2.13883 13.1089 2.57494 12.1365 3.32617L11.886 3.51972L11.8836 3.20315C11.8829 3.10357 11.8689 3.00481 11.8422 2.90943C11.8364 2.91436 11.8305 2.91945 11.8245 2.9247C11.7286 3.00889 11.6278 3.12489 11.577 3.26479L11.4055 3.73786L11.2777 3.25118C11.2559 3.16819 11.2255 3.08771 11.187 3.01103C11.0515 2.74963 10.8209 2.55853 10.6145 2.4306C10.5389 2.38374 10.4682 2.34635 10.4092 2.31792C10.3977 2.38213 10.3867 2.46104 10.3806 2.5494C10.364 2.79118 10.3855 3.08972 10.5222 3.35277L10.5227 3.35367C10.5555 3.41771 10.5941 3.47861 10.638 3.53559L10.8846 3.85553L10.4867 3.78605C10.3574 3.76348 10.2256 3.76508 10.0979 3.79019L10.2222 3.96778L9.98017 4.01088C7.85898 4.38862 6.32875 5.65548 5.80224 7.39278L5.73438 7.61673L5.55292 7.46898C5.53752 7.45644 5.52185 7.44424 5.50592 7.4324C5.4993 7.45542 5.49276 7.48026 5.48663 7.50662C5.45133 7.65844 5.43276 7.84847 5.4825 8.02861L5.61587 8.5116L5.23077 8.19103C5.15 8.1238 5.06218 8.0655 4.96886 8.01717C4.64548 7.85057 4.27956 7.82526 3.98544 7.84548C3.85771 7.85426 3.74618 7.87144 3.66144 7.88792C3.69728 7.96639 3.74811 8.06704 3.8152 8.17598C3.96974 8.42695 4.20315 8.70994 4.52696 8.87626C4.60611 8.91689 4.68878 8.95026 4.77395 8.97597L5.16113 9.09287L4.79646 9.26777C4.63616 9.34465 4.49385 9.45315 4.37771 9.58606C4.50554 9.63345 4.64011 9.66147 4.77695 9.66888L5.09963 9.68633L4.88643 9.92917C3.96923 10.9739 3.59304 12.1592 3.73619 13.3072C3.87947 14.4561 4.54563 15.5876 5.75123 16.5168L5.81239 16.5639V16.6411C5.81239 16.8123 5.81253 16.9644 5.8285 17.1161L5.84851 17.3062L5.65814 17.2888C5.53504 17.2776 5.41129 17.2831 5.29018 17.3048C5.3024 17.3254 5.316 17.3473 5.331 17.3699C5.41712 17.4994 5.54253 17.6428 5.70786 17.7293L6.14759 17.9596L5.65543 18.024C5.55058 18.0378 5.44742 18.0622 5.34759 18.0971C5.00351 18.2188 4.73457 18.4677 4.54834 18.6954C4.4675 18.7942 4.4039 18.887 4.35808 18.9598C4.43979 18.9875 4.54797 19.0195 4.67335 19.0453C4.96195 19.1047 5.3279 19.1287 5.67087 19.0071C5.75449 18.9776 5.83541 18.9404 5.91221 18.8961L6.28727 18.6796L6.13803 19.0861C6.11375 19.1522 6.09694 19.2209 6.08789 19.2907C6.08786 19.2933 6.08791 19.2958 6.08803 19.2983L6.08861 19.3098L6.0875 19.3213C6.07842 19.4152 6.07875 19.5096 6.08839 19.6032C6.1975 19.5491 6.29926 19.4808 6.39094 19.3998L6.43546 19.3605H6.59128L6.63812 19.4279C6.64908 19.4436 6.66109 19.4592 6.67591 19.4784L6.76459 19.5932L6.65718 19.6906C6.61319 19.7305 6.57225 19.7737 6.53471 19.8197C6.3503 20.0511 6.27062 20.3397 6.23903 20.5799C6.22747 20.6678 6.22259 20.7473 6.22103 20.8126C6.28373 20.7966 6.35947 20.7743 6.44186 20.7437C6.66733 20.6599 6.93021 20.5187 7.11761 20.2881L7.23323 20.1263L7.36373 20.2421C7.47054 20.3368 7.57532 20.4143 7.69905 20.5056L7.70248 20.5082L7.70577 20.5109C7.72612 20.5277 7.74171 20.5408 7.75424 20.5513C7.78043 20.5734 7.79331 20.5842 7.80854 20.594L7.81141 20.5958L7.8142 20.5978C8.86612 21.3386 10.2757 21.734 11.8985 21.6515L11.9627 21.6483L12.0107 21.6909C14.5012 23.903 18.0659 23.8302 20.4347 21.5219L20.4811 21.4766L20.5459 21.4773C22.0327 21.4932 23.3212 21.114 24.304 20.4525L24.4547 20.351L24.5332 20.5149C24.5549 20.5603 24.5817 20.6028 24.6128 20.6417C24.6236 20.5788 24.6249 20.5142 24.6163 20.45L24.5554 19.9981L24.8816 20.3168C24.9201 20.3545 24.9626 20.3878 25.0084 20.4163C25.166 20.5134 25.354 20.5421 25.5119 20.5434C25.5409 20.5436 25.5683 20.5429 25.5938 20.5416C25.5835 20.5184 25.5718 20.4936 25.5585 20.468C25.4862 20.3276 25.3755 20.1724 25.217 20.0749C25.1942 20.0611 25.1707 20.0484 25.1466 20.037L24.9507 19.9438L25.1005 19.7868C25.1353 19.7504 25.1692 19.714 25.2023 19.6776L25.2138 19.6649L25.2278 19.655C25.2378 19.6479 25.2476 19.6406 25.2572 19.6331L25.2507 19.6291L25.3626 19.4903C26.0653 18.6189 26.435 17.4978 26.3526 16.2286L26.3475 16.1494L26.4082 16.0983C27.1547 15.4704 27.6644 14.7677 27.9585 14.0379L28.1014 13.6831L28.1603 13.8239L28.5779 13.8745C28.6305 13.8809 28.6836 13.8819 28.7364 13.8774C28.9208 13.859 29.0879 13.7681 29.2144 13.6737C29.2376 13.6564 29.259 13.6393 29.2785 13.6229C29.2562 13.6106 29.2319 13.5979 29.2058 13.5855C29.063 13.5173 28.8809 13.4605 28.6957 13.4787L28.695 13.4787C28.6507 13.4829 28.6068 13.4915 28.5641 13.5042L28.1705 13.6221L28.3853 13.2718C28.412 13.2283 28.4334 13.182 28.4493 13.1339C28.4477 13.1346 28.4461 13.1352 28.4445 13.1359L28.1994 13.2362L28.229 12.9731C28.3624 11.7864 27.9429 10.574 26.9572 9.53382L26.6255 9.18384L27.0997 9.2715C27.1329 9.27764 27.1664 9.28165 27.2001 9.2835C27.3941 9.29171 27.5804 9.22203 27.7249 9.14301C27.7541 9.12702 27.7811 9.11093 27.8055 9.09546C27.7864 9.08099 27.7655 9.06593 27.7431 9.05072C27.6141 8.96312 27.4434 8.87739 27.2576 8.85891L26.7606 8.8095L27.1965 8.56572C27.2882 8.51441 27.3743 8.45355 27.4533 8.38416C27.725 8.14214 27.8803 7.80976 27.9673 7.52807C28.0051 7.40579 28.0292 7.29561 28.0444 7.21064C27.9583 7.21586 27.8461 7.22708 27.7204 7.25046C27.4306 7.30433 27.0825 7.42017 26.8107 7.66212C26.7444 7.72164 26.6834 7.78677 26.6284 7.85678L26.3805 8.17202L26.3485 7.77226C26.3344 7.59517 26.2845 7.42348 26.2025 7.26731L26.0196 7.47851L25.9365 7.20738C25.3484 5.28854 23.5738 3.95969 21.1802 3.74276L20.9176 3.71896L21.0637 3.49946C21.0722 3.48663 21.0805 3.47363 21.0885 3.46046ZM28.1811 13.8738L28.2489 14.036C28.2772 14.1037 28.3209 14.1638 28.3764 14.2115C28.4332 14.2495 28.4954 14.2775 28.5606 14.2949C28.5312 14.2386 28.4933 14.1867 28.4479 14.1412L28.1811 13.8738ZM28.6653 13.1662C28.6655 13.1662 28.6656 13.1662 28.6657 13.1662L28.6804 13.3225L28.665 13.1663C28.6651 13.1662 28.6652 13.1662 28.6653 13.1662Z" fill="#047857"/>
<path opacity="0.1" d="M28.7509 14.0337C29.1998 13.9896 29.5292 13.5983 29.5292 13.5983C29.5292 13.5983 29.1302 13.2783 28.6804 13.3225C28.6258 13.3276 28.5717 13.3381 28.5191 13.3539C28.5975 13.2261 28.6392 13.0793 28.6397 12.9295C28.5522 12.9367 28.4663 12.9573 28.385 12.9906C28.5242 11.7523 28.0846 10.4953 27.0712 9.42585C27.1113 9.43326 27.1518 9.43808 27.1926 9.44028C27.6611 9.46065 28.0566 9.10587 28.0566 9.10587C28.0566 9.10587 27.7171 8.74685 27.2732 8.70271C27.3748 8.64588 27.4701 8.57846 27.5575 8.50156C28.161 7.9643 28.2246 7.05019 28.2246 7.05019C28.2246 7.05019 27.3097 7.00775 26.7062 7.54501C26.6331 7.61066 26.5658 7.68251 26.5051 7.75975C26.4836 7.49185 26.3891 7.23497 26.2318 7.01709C26.1799 7.06151 26.1313 7.10974 26.0866 7.16138C25.4764 5.17021 23.6388 3.80796 21.1944 3.58644C21.2442 3.51164 21.2858 3.43167 21.3183 3.34794C21.3183 3.34794 20.9279 3.21893 20.585 3.36406C20.6372 3.28207 20.6805 3.19472 20.714 3.1035C20.9423 2.47118 20.6292 1.77859 20.6292 1.77859C20.6292 1.77859 19.9434 2.10961 19.715 2.74108C19.6877 2.8181 19.667 2.89732 19.6531 2.97788C19.5315 2.79034 19.3606 2.63997 19.1591 2.54332C19.1223 2.63979 19.0975 2.74041 19.0853 2.84293C18.0144 2.17755 16.7658 1.85536 15.5067 1.91953C14.2477 1.9837 13.0383 2.43116 12.0406 3.20195C12.0392 3.01577 11.9972 2.83213 11.9176 2.66384C11.9176 2.66384 11.556 2.86245 11.4295 3.21129C11.4049 3.11742 11.3704 3.02639 11.3268 2.93969C11.0196 2.34556 10.2981 2.10027 10.2981 2.10027C10.2981 2.10027 10.0724 2.82765 10.383 3.42517C10.4202 3.49778 10.4639 3.56682 10.5137 3.63142C10.2937 3.59301 10.0674 3.61561 9.85934 3.69677C9.8861 3.7524 9.91732 3.80576 9.9527 3.85634C7.78414 4.24252 6.19867 5.54366 5.65208 7.34726C5.58129 7.28962 5.50544 7.23849 5.42546 7.19448C5.42546 7.19448 5.21243 7.64007 5.33125 8.07039C5.24173 7.99587 5.14441 7.93128 5.04098 7.87773C4.32293 7.50767 3.44702 7.77757 3.44702 7.77757C3.44702 7.77757 3.73645 8.64669 4.45534 9.0159C4.54292 9.06086 4.63439 9.09778 4.72864 9.12624C4.48644 9.2424 4.28089 9.42299 4.13451 9.64822C4.33031 9.75306 4.54675 9.81361 4.76853 9.82561C2.8826 11.9738 3.1907 14.7416 5.65547 16.6411C5.65547 16.8108 5.65547 16.9713 5.67245 17.1325C5.46653 17.1137 5.25895 17.1368 5.0622 17.2004C5.0622 17.2004 5.23959 17.6613 5.6351 17.8684C5.51947 17.8835 5.4057 17.9105 5.2956 17.949C4.53173 18.2189 4.13112 19.0405 4.13112 19.0405C4.13112 19.0405 4.96204 19.425 5.72337 19.1551C5.81608 19.1224 5.90558 19.0812 5.99073 19.032C5.9688 19.0906 5.95232 19.1512 5.9415 19.2128C5.93034 19.2745 5.92382 19.3369 5.92198 19.3995C5.91865 19.4561 5.91865 19.5127 5.92198 19.5693C5.92198 19.6151 5.93047 19.6609 5.93811 19.7059C5.94235 19.7356 5.94829 19.7653 5.95508 19.7908C5.95508 19.8001 5.95508 19.8086 5.96102 19.818C6.15555 19.7522 6.33502 19.6483 6.48895 19.5124H6.50338C6.51696 19.5319 6.53138 19.5506 6.54581 19.5693C6.4958 19.6147 6.44927 19.6637 6.40662 19.7161C5.98734 20.2415 6.06288 20.9986 6.06288 20.9986C6.06288 20.9986 6.81826 20.9095 7.24264 20.3832L7.25961 20.3595C7.3725 20.4596 7.46756 20.5292 7.58978 20.6209C7.65853 20.671 7.69163 20.7058 7.72388 20.7261C8.80859 21.49 10.254 21.8923 11.9065 21.8083C14.4579 24.0745 18.116 24.0006 20.5443 21.6343C22.0585 21.6504 23.3791 21.2642 24.3917 20.5827C24.4563 20.7176 24.5567 20.8321 24.6819 20.9137C24.7629 20.7659 24.7944 20.5961 24.7719 20.4291C24.8186 20.4747 24.8701 20.5151 24.9255 20.5496C25.3092 20.7864 25.8082 20.6735 25.8082 20.6735C25.8082 20.6735 25.6843 20.1778 25.299 19.941C25.2715 19.9243 25.2432 19.909 25.2141 19.8952C25.2498 19.8579 25.2846 19.8205 25.3185 19.7832C25.39 19.7326 25.4535 19.6717 25.5069 19.6024L25.4849 19.5888C26.2131 18.6857 26.5942 17.5255 26.5093 16.2184C27.2732 15.5759 27.7994 14.8528 28.1041 14.0965C28.143 14.1897 28.2039 14.2721 28.2815 14.3367C28.4276 14.4372 28.6038 14.4842 28.7806 14.47C28.7555 14.3035 28.6779 14.1495 28.559 14.0303C28.6227 14.038 28.687 14.0392 28.7509 14.0337Z" fill="#047857"/>
<path d="M22.3759 31.5791C21.0382 31.3652 19.1922 30.4282 19.1922 28.6934C19.1922 26.9585 18.9248 16.9585 19.1922 16.2897C19.4595 15.6209 20.0486 15.8653 20.6351 16.0758C20.9112 16.183 21.1481 16.3719 21.3141 16.6173C21.3328 16.6453 21.3575 16.6689 21.3864 16.6862C21.4153 16.7035 21.4477 16.7141 21.4813 16.7174C21.5148 16.7206 21.5487 16.7164 21.5804 16.7049C21.6121 16.6935 21.6409 16.6752 21.6646 16.6513C21.6873 16.6262 21.7039 16.5962 21.7132 16.5637C21.7224 16.5311 21.724 16.4969 21.7178 16.4636C21.7117 16.4304 21.6979 16.399 21.6777 16.3719C21.6574 16.3448 21.6311 16.3228 21.6009 16.3075C21.3599 16.1887 21.0323 15.9867 20.9831 15.755C20.8982 15.3807 21.0094 15.407 21.1698 15.3001C21.3422 15.1629 21.5063 15.0155 21.6612 14.8587C21.6858 14.8379 21.7057 14.8122 21.7195 14.7831C21.7334 14.7541 21.741 14.7225 21.7417 14.6903C21.7424 14.6581 21.7364 14.6261 21.7238 14.5965C21.7113 14.5669 21.6926 14.5402 21.669 14.5183C21.6455 14.4964 21.6175 14.4798 21.587 14.4695C21.5565 14.4592 21.5242 14.4555 21.4922 14.4587C21.4601 14.4618 21.4291 14.4717 21.4012 14.4877C21.3733 14.5037 21.3491 14.5254 21.3302 14.5515C21.1375 14.8112 20.703 15.2839 20.1538 15.1668C19.4044 15.0064 18.896 14.391 19.1353 13.1298C19.3051 12.2581 19.9968 11.3092 20.4084 10.8093C20.4393 10.777 20.4619 10.7376 20.4742 10.6947C20.4864 10.6517 20.4881 10.6064 20.479 10.5626C20.4699 10.5189 20.4503 10.478 20.4219 10.4435C20.3935 10.409 20.3571 10.3819 20.3159 10.3646C20.2501 10.3347 20.1753 10.3315 20.1071 10.3555C20.0389 10.3795 19.9827 10.429 19.9501 10.4936C19.7082 10.9748 19.0555 12.1614 18.5217 12.1402C18.0523 12.1215 17.5032 11.8134 17.2188 11.6309C17.2 11.6182 17.1788 11.6096 17.1565 11.6055C17.1341 11.6015 17.1112 11.6022 17.0891 11.6076C17.0671 11.6129 17.0464 11.6228 17.0284 11.6366C17.0104 11.6504 16.9955 11.6679 16.9846 11.6878C16.9657 11.7246 16.962 11.7675 16.9744 11.807C16.9868 11.8465 17.0142 11.8796 17.0508 11.8991C17.6101 12.1928 18.2059 12.8005 18.2806 13.0763C18.3613 13.3708 18.2008 13.8521 17.6661 14.8417C17.1314 15.8314 15.6291 16.3398 14.8839 15.2432C14.2898 14.3707 14.1319 12.4491 14.2177 11.5825C14.2222 11.5437 14.219 11.5043 14.2082 11.4667C14.1973 11.4291 14.179 11.394 14.1545 11.3636C14.1299 11.3331 14.0994 11.3079 14.065 11.2894C14.0305 11.2709 13.9926 11.2594 13.9537 11.2558C13.9142 11.2532 13.8746 11.2588 13.8374 11.2723C13.8001 11.2857 13.7661 11.3068 13.7374 11.334C13.7087 11.3613 13.686 11.3942 13.6706 11.4307C13.6552 11.4672 13.6476 11.5064 13.6481 11.546C13.6583 12.197 13.9622 13.583 13.7067 14.307C13.3859 15.2169 12.3428 15.671 11.7003 15.1897C11.2487 14.8502 11.3404 13.9811 11.4346 13.4922C11.444 13.4612 11.4449 13.4283 11.4374 13.3968C11.4299 13.3652 11.4142 13.3363 11.3918 13.3128C11.3695 13.2894 11.3414 13.2722 11.3103 13.2632C11.2791 13.2542 11.2462 13.2535 11.2148 13.2614C11.1715 13.2693 11.1325 13.2922 11.1044 13.326C11.0763 13.3598 11.061 13.4024 11.0611 13.4464C11.0611 13.7664 11.0246 14.5727 10.6843 14.7849C10.4042 14.9597 10.136 14.7467 9.98408 14.5778C9.95424 14.5439 9.91261 14.5227 9.86767 14.5184C9.82272 14.5141 9.77785 14.5272 9.74218 14.5549C9.72281 14.5704 9.70697 14.5899 9.69572 14.612C9.68448 14.6342 9.67808 14.6585 9.67695 14.6833C9.67583 14.7081 9.68001 14.7329 9.6892 14.756C9.6984 14.779 9.71241 14.7999 9.7303 14.8171C9.84149 14.9232 10.0248 15.0964 10.2472 15.3043C10.327 15.4172 10.4348 15.6141 10.3635 15.7754C10.2922 15.9366 9.92212 16.0181 9.70229 16.0495C9.68234 16.0525 9.66326 16.0597 9.64631 16.0706C9.62937 16.0815 9.61495 16.096 9.60402 16.1129C9.5931 16.1299 9.58592 16.149 9.58296 16.1689C9.58 16.1888 9.58133 16.2092 9.58686 16.2286V16.2354C9.59294 16.256 9.60357 16.275 9.61797 16.2909C9.63237 16.3069 9.65016 16.3194 9.67004 16.3275C9.68992 16.3357 9.71138 16.3392 9.73283 16.338C9.75427 16.3367 9.77516 16.3307 9.79396 16.3203C10.0902 16.1649 10.787 16.1505 10.9415 16.1556C11.7257 16.2057 12.493 16.7013 12.9097 17.3574C13.3265 18.0135 13.3052 18.9149 13.3519 19.6677C13.4589 21.406 13.4911 29.4097 13.0362 30.0785C12.5813 30.7473 10.9143 31.6436 10.9143 31.6436" fill="#047857"/>
<path fill-rule="evenodd" clip-rule="evenodd" d="M20.363 10.2567C20.4212 10.2815 20.4725 10.3199 20.5127 10.3687C20.5532 10.4179 20.5812 10.4762 20.5942 10.5387C20.6072 10.6011 20.6048 10.6657 20.5873 10.7271C20.5702 10.7869 20.5391 10.8417 20.4968 10.8872C20.2935 11.1342 20.0227 11.4903 19.782 11.8908C19.5396 12.2941 19.332 12.7356 19.2509 13.152C19.1345 13.7654 19.2035 14.2032 19.3757 14.5024C19.5467 14.7993 19.8293 14.9769 20.1783 15.0517M20.363 10.2567C20.2699 10.2149 20.1642 10.2105 20.0679 10.2445C19.971 10.2786 19.8911 10.3489 19.8449 10.4406C19.725 10.6792 19.5047 11.0894 19.2504 11.4356C19.1231 11.609 18.9905 11.7617 18.861 11.8688C18.7289 11.978 18.6164 12.0261 18.5263 12.0225C18.313 12.014 18.074 11.9389 17.8483 11.8393C17.6247 11.7406 17.4223 11.6216 17.2834 11.5325C17.2513 11.5111 17.2152 11.4965 17.1772 11.4897C17.1388 11.4828 17.0993 11.4839 17.0613 11.4932C17.0233 11.5024 16.9877 11.5194 16.9567 11.5432C16.9256 11.567 16.8999 11.597 16.8812 11.6313L16.8798 11.6341C16.8468 11.6984 16.8404 11.7732 16.862 11.8422C16.8836 11.9112 16.9315 11.969 16.9953 12.003L16.996 12.0033C17.2631 12.1436 17.5428 12.3613 17.7651 12.5786C17.8759 12.6869 17.9706 12.7934 18.0413 12.8879C18.114 12.985 18.1542 13.0602 18.1669 13.1071L18.167 13.1074C18.1979 13.2202 18.1871 13.3865 18.0928 13.66C17.9991 13.9314 17.8291 14.2923 17.5625 14.7858C17.3117 15.2499 16.8315 15.603 16.3294 15.7096C15.8334 15.815 15.323 15.68 14.9812 15.177C14.6998 14.7638 14.5147 14.0875 14.4122 13.3934C14.3104 12.7034 14.2931 12.0168 14.3346 11.5951C14.3408 11.5411 14.3363 11.4863 14.3212 11.434C14.306 11.3814 14.2804 11.3323 14.246 11.2896C14.2115 11.247 14.1689 11.2116 14.1206 11.1857C14.0723 11.1598 14.0193 11.1437 13.9647 11.1386L13.9613 11.1383C13.9056 11.1346 13.8497 11.1426 13.7972 11.1616C13.7447 11.1806 13.6967 11.2102 13.6562 11.2487C13.6158 11.2871 13.5837 11.3336 13.562 11.385C13.5404 11.4365 13.5296 11.4919 13.5304 11.5477C13.533 11.7169 13.5546 11.9312 13.5804 12.1633C13.586 12.2129 13.5917 12.2635 13.5975 12.3148C13.6192 12.5055 13.642 12.7066 13.6597 12.9094C13.7052 13.4298 13.7138 13.933 13.5956 14.2678C13.4463 14.6912 13.129 15.0078 12.7768 15.1622C12.4242 15.3168 12.05 15.3046 11.7708 15.0955C11.5873 14.9575 11.5012 14.7 11.4802 14.389C11.4595 14.0851 11.5032 13.7595 11.5491 13.5197C11.5627 13.4707 11.5637 13.419 11.5519 13.3695C11.5395 13.3177 11.5137 13.2702 11.477 13.2317C11.4404 13.1931 11.3941 13.165 11.343 13.1502C11.2931 13.1357 11.2403 13.1343 11.1898 13.1463C11.1209 13.1598 11.0587 13.1967 11.0138 13.2508C10.9681 13.3059 10.9431 13.3752 10.9433 13.4467L11.0611 13.4464H10.9433C10.9433 13.6033 10.9343 13.8764 10.8847 14.1338C10.8599 14.2625 10.8257 14.383 10.7799 14.4816C10.7336 14.5813 10.68 14.6488 10.6219 14.685C10.5212 14.7479 10.426 14.7426 10.3329 14.7022C10.2345 14.6595 10.1431 14.5785 10.0719 14.4994C10.0223 14.4434 9.95324 14.4083 9.8787 14.4012C9.80393 14.3941 9.72927 14.4158 9.66993 14.4619L9.66842 14.463C9.63601 14.4891 9.60951 14.5217 9.59069 14.5587C9.57187 14.5958 9.56116 14.6365 9.55928 14.678C9.5574 14.7195 9.56438 14.7609 9.57978 14.7996C9.59517 14.8382 9.61861 14.8731 9.64854 14.9019L9.64896 14.9023C9.759 15.0073 9.93918 15.1775 10.1577 15.3818C10.1923 15.4321 10.2288 15.495 10.2503 15.5591C10.2735 15.6283 10.2748 15.6847 10.2557 15.7278C10.2512 15.7381 10.2363 15.7578 10.1975 15.7826C10.16 15.8066 10.1097 15.8293 10.0501 15.8498C9.93118 15.8909 9.7919 15.9178 9.68557 15.933L9.68488 15.9331C9.64837 15.9385 9.61343 15.9517 9.58241 15.9717C9.5514 15.9917 9.525 16.0181 9.505 16.0491C9.485 16.0802 9.47185 16.1151 9.46643 16.1516C9.46186 16.1824 9.46288 16.2137 9.46938 16.2441C9.47 16.2524 9.4715 16.2607 9.47387 16.2687C9.48494 16.3062 9.5043 16.3408 9.53051 16.3698C9.55673 16.3988 9.58913 16.4216 9.62532 16.4365C9.66152 16.4513 9.70058 16.4578 9.73964 16.4555C9.77815 16.4533 9.81567 16.4425 9.84951 16.424C9.97522 16.3585 10.2017 16.3173 10.4322 16.295C10.656 16.2732 10.8622 16.2709 10.9357 16.2732C11.6782 16.3213 12.412 16.7936 12.8103 17.4206C13.0054 17.7278 13.1012 18.0977 13.1528 18.4916C13.1897 18.7732 13.2033 19.0583 13.2167 19.3375C13.2221 19.4512 13.2275 19.5639 13.2343 19.675C13.2875 20.5395 13.3224 22.9714 13.287 25.2724C13.2693 26.4225 13.234 27.5376 13.175 28.4061C13.1454 28.8407 13.11 29.2114 13.0682 29.4932C13.0473 29.6342 13.0251 29.7508 13.0018 29.8411C12.9776 29.9347 12.9551 29.9883 12.9388 30.0123C12.8349 30.165 12.6563 30.3377 12.4386 30.5137C12.2227 30.6883 11.9753 30.8606 11.7404 31.0132C11.5058 31.1656 11.285 31.2975 11.1229 31.3912C11.0418 31.4381 10.9755 31.4754 10.9296 31.5009C10.9066 31.5137 10.8887 31.5235 10.8766 31.5301L10.863 31.5375L10.8587 31.5398C10.8014 31.5706 10.7798 31.6421 10.8105 31.6994C10.8413 31.7566 10.9127 31.7781 10.97 31.7473L10.9142 31.6436C10.97 31.7473 10.97 31.7473 10.97 31.7473L10.9704 31.7471L10.9751 31.7445L10.9895 31.7367C11.002 31.7299 11.0204 31.7198 11.0439 31.7067C11.0909 31.6806 11.1584 31.6427 11.2407 31.5951C11.4053 31.4999 11.6297 31.3659 11.8687 31.2106C12.1074 31.0555 12.3621 30.8783 12.5867 30.6968C12.8095 30.5166 13.0098 30.3265 13.1335 30.1447C13.174 30.0851 13.2045 29.9979 13.2298 29.8999C13.256 29.7986 13.2796 29.673 13.3011 29.5277C13.3442 29.237 13.3801 28.8592 13.4099 28.4221C13.4694 27.5475 13.5047 26.4277 13.5224 25.276C13.5578 22.9734 13.5231 20.5342 13.4694 19.6605C13.4629 19.5563 13.4577 19.4477 13.4524 19.3364C13.4389 19.0535 13.4245 18.7528 13.3862 18.461C13.3326 18.052 13.2306 17.6432 13.009 17.2943C12.5741 16.6097 11.7743 16.0908 10.9489 16.0381L10.9453 16.0379C10.8627 16.0352 10.6448 16.0377 10.4094 16.0606C10.1794 16.0829 9.90992 16.1265 9.73921 16.216L9.73683 16.2173C9.73346 16.2192 9.72971 16.2202 9.72587 16.2205C9.72203 16.2207 9.71818 16.2201 9.71461 16.2186C9.71105 16.2171 9.70786 16.2149 9.70528 16.212C9.70439 16.211 9.70357 16.21 9.70285 16.2089C9.70213 16.2046 9.70118 16.2004 9.7 16.1963C9.69906 16.193 9.69883 16.1896 9.69933 16.1862C9.69984 16.1828 9.70105 16.1796 9.7029 16.1767C9.70475 16.1738 9.7072 16.1714 9.71007 16.1695C9.71294 16.1677 9.71617 16.1665 9.71955 16.166L9.70222 16.0495L9.71887 16.1661C9.83236 16.1498 9.98803 16.1203 10.1269 16.0724C10.1962 16.0485 10.2655 16.0186 10.3244 15.981C10.3818 15.9442 10.44 15.8933 10.4711 15.823C10.5233 15.7048 10.5063 15.5821 10.4735 15.4843C10.4404 15.3856 10.3865 15.2975 10.3433 15.2364C10.3386 15.2298 10.3334 15.2238 10.3275 15.2183C10.1055 15.0107 9.92259 14.838 9.81176 14.7322C9.80599 14.7266 9.80146 14.7198 9.79849 14.7124C9.79548 14.7048 9.79412 14.6967 9.79449 14.6886C9.79485 14.6805 9.79694 14.6726 9.80062 14.6654C9.80415 14.6584 9.80906 14.6523 9.81506 14.6473C9.82692 14.6384 9.8417 14.6342 9.85649 14.6356C9.87161 14.637 9.88561 14.6442 9.89565 14.6556L9.89648 14.6565C9.97718 14.7462 10.0956 14.8559 10.2392 14.9182C10.3882 14.9829 10.5672 14.9967 10.7466 14.8847C10.8586 14.8149 10.9372 14.702 10.9935 14.5808C11.0502 14.4585 11.089 14.3177 11.1159 14.1783C11.1696 13.8996 11.1788 13.6094 11.1788 13.4464L11.1788 13.446C11.1787 13.4297 11.1844 13.4138 11.1949 13.4012C11.2054 13.3886 11.2199 13.3801 11.236 13.3771C11.2384 13.3767 11.2408 13.3762 11.2432 13.3756C11.2544 13.3728 11.2662 13.373 11.2773 13.3763C11.2884 13.3795 11.2985 13.3856 11.3065 13.394C11.3145 13.4024 11.3201 13.4128 11.3228 13.424C11.3255 13.4353 11.3252 13.4471 11.3218 13.4582C11.3207 13.4621 11.3197 13.466 11.3189 13.4699C11.271 13.7185 11.2225 14.0694 11.2452 14.405C11.2677 14.7356 11.3615 15.0824 11.6294 15.2838C11.9927 15.5559 12.4615 15.5575 12.8713 15.3779C13.2815 15.198 13.6461 14.8327 13.8176 14.3462C13.955 13.9571 13.9394 13.4053 13.8942 12.8889C13.8762 12.6828 13.853 12.4777 13.8313 12.2867C13.8255 12.2358 13.8199 12.1859 13.8144 12.1372C13.7884 11.9038 13.7682 11.7006 13.7658 11.5443C13.7655 11.521 13.77 11.4979 13.779 11.4764C13.7881 11.4549 13.8015 11.4355 13.8184 11.4194C13.8353 11.4033 13.8554 11.3909 13.8773 11.383C13.8988 11.3752 13.9215 11.3719 13.9442 11.3731C13.967 11.3755 13.989 11.3823 14.0092 11.3931C14.0298 11.4042 14.0481 11.4193 14.0628 11.4376C14.0775 11.4558 14.0885 11.4768 14.095 11.4993C14.1015 11.5219 14.1034 11.5454 14.1007 11.5687L14.1004 11.5709C14.0564 12.0159 14.0752 12.7229 14.1793 13.4278C14.2829 14.1293 14.4738 14.8501 14.7865 15.3094C15.1899 15.903 15.8032 16.0621 16.3783 15.94C16.9474 15.8191 17.4857 15.4232 17.7696 14.8977C18.0377 14.4015 18.2153 14.0269 18.3153 13.7367C18.4147 13.4487 18.4438 13.2272 18.3942 13.0456M20.2672 10.4718C20.2291 10.4545 20.1857 10.4526 20.1462 10.4665C20.1067 10.4805 20.0741 10.5091 20.0552 10.5465M20.3309 10.5183C20.3147 10.4985 20.2938 10.483 20.2702 10.4731L20.2672 10.4718M20.3309 10.5183C20.3472 10.5381 20.3585 10.5615 20.3637 10.5866L20.3309 10.5183ZM20.3637 10.5866C20.3689 10.6117 20.3679 10.6377 20.3609 10.6623L20.3637 10.5866ZM20.3609 10.6623C20.3538 10.6869 20.3409 10.7095 20.3232 10.728L20.3609 10.6623ZM20.3232 10.728C20.3212 10.7301 20.3193 10.7323 20.3175 10.7345L20.3232 10.728ZM20.3175 10.7345C20.1093 10.9873 19.8297 11.3543 19.5802 11.7695L20.3175 10.7345ZM19.5802 11.7695C19.3314 12.1834 19.1083 12.6521 19.0197 13.1073L19.5802 11.7695ZM17.0886 11.7429C17.0844 11.7519 17.0837 11.7622 17.0867 11.7718C17.0898 11.7817 17.0966 11.7901 17.1058 11.7951C17.3979 11.9485 17.6956 12.1814 17.9297 12.4102C18.047 12.525 18.1503 12.6405 18.2298 12.7468C18.3072 12.8502 18.3694 12.9543 18.3941 13.0452M19.0197 13.1073L19.0196 13.1079L19.0197 13.1073ZM19.0196 13.1079C18.8967 13.7556 18.9622 14.256 19.1717 14.6199L19.0196 13.1079ZM19.1717 14.6199C19.3824 14.986 19.7287 15.1962 20.1291 15.2819L19.1717 14.6199ZM21.4806 14.3415C21.5292 14.3367 21.5783 14.3424 21.6246 14.358C21.6708 14.3736 21.7133 14.3988 21.7491 14.432C21.7849 14.4653 21.8132 14.5057 21.8322 14.5507C21.8512 14.5957 21.8605 14.6442 21.8593 14.693C21.8582 14.7418 21.8467 14.7898 21.8257 14.8339C21.8054 14.8762 21.7768 14.914 21.7415 14.9448C21.5844 15.1037 21.4179 15.2531 21.243 15.3922C21.2404 15.3942 21.2377 15.3962 21.235 15.398C21.203 15.4193 21.1686 15.4384 21.1434 15.4523C21.1342 15.4574 21.1263 15.4618 21.1201 15.4654C21.0918 15.4819 21.0843 15.4897 21.081 15.4945C21.0762 15.5014 21.0548 15.5396 21.0978 15.729L21.0981 15.7305C21.114 15.805 21.1806 15.8916 21.2934 15.9816C21.4023 16.0684 21.5361 16.1443 21.6529 16.2019L21.654 16.2025C21.7004 16.2259 21.7407 16.2598 21.7718 16.3014C21.803 16.3429 21.8241 16.3911 21.8335 16.4422C21.843 16.4933 21.8405 16.5459 21.8263 16.5958C21.8122 16.6458 21.7866 16.6918 21.7518 16.7303C21.7506 16.7317 21.7493 16.733 21.7481 16.7342C21.712 16.7705 21.6684 16.7983 21.6202 16.8157C21.5721 16.833 21.5208 16.8395 21.4699 16.8346C21.419 16.8296 21.3698 16.8135 21.3259 16.7872C21.2821 16.761 21.2446 16.7254 21.2163 16.683C21.064 16.458 20.8469 16.2847 20.5938 16.1861C20.5726 16.1785 20.5515 16.1709 20.5306 16.1634C20.254 16.0637 20.0051 15.9739 19.7921 15.9707C19.6822 15.9691 19.5903 15.9912 19.5131 16.0425C19.4357 16.094 19.3618 16.1824 19.3014 16.3334C19.2913 16.3587 19.2779 16.4221 19.265 16.5336C19.2527 16.6407 19.242 16.7805 19.2329 16.9498C19.2148 17.2882 19.2033 17.7386 19.197 18.2674C19.1845 19.3246 19.1929 20.6903 19.2096 22.0904C19.2264 23.4986 19.2517 24.9424 19.2726 26.1398C19.2933 27.3209 19.3098 28.2624 19.3098 28.6934C19.3098 29.5135 19.7446 30.1501 20.3536 30.6129C20.9641 31.0769 21.741 31.3584 22.3944 31.4629C22.4586 31.4731 22.5023 31.5335 22.492 31.5977C22.4818 31.6619 22.4214 31.7056 22.3572 31.6954C21.673 31.586 20.858 31.292 20.2111 30.8003C19.5626 30.3075 19.0744 29.6081 19.0744 28.6934C19.0744 28.2634 19.058 27.3258 19.0373 26.1479C19.0163 24.951 18.991 23.5061 18.9741 22.0932C18.9574 20.6927 18.9491 19.3247 18.9616 18.2646C18.9679 17.7347 18.9794 17.2805 18.9978 16.9372C19.007 16.7657 19.018 16.6205 19.0311 16.5067C19.0437 16.3974 19.0595 16.3043 19.0828 16.246C19.1561 16.0626 19.2561 15.9307 19.3827 15.8465C19.5094 15.7622 19.6515 15.7331 19.7956 15.7353C20.0504 15.7391 20.337 15.8428 20.6013 15.9385C20.626 15.9474 20.6505 15.9563 20.6748 15.965L20.6776 15.966C20.9761 16.0819 21.2321 16.2861 21.4115 16.5514L21.4119 16.5519C21.4209 16.5655 21.4328 16.5768 21.4468 16.5851C21.4607 16.5935 21.4764 16.5986 21.4926 16.6002C21.5087 16.6018 21.5251 16.5997 21.5404 16.5942C21.5548 16.589 21.568 16.5808 21.5791 16.5702C21.5887 16.559 21.5958 16.5458 21.5998 16.5316C21.6041 16.5164 21.6049 16.5005 21.602 16.4851C21.5992 16.4696 21.5928 16.4551 21.5833 16.4425C21.574 16.43 21.562 16.4199 21.5482 16.4128C21.4241 16.3516 21.2739 16.2672 21.1466 16.1656C21.0232 16.0672 20.9017 15.9372 20.868 15.7804C20.8262 15.5958 20.8181 15.4602 20.8877 15.3601C20.9216 15.3113 20.9667 15.2822 21.0017 15.2619C21.0159 15.2536 21.0283 15.2468 21.04 15.2404C21.0603 15.2292 21.0785 15.2191 21.1004 15.2047C21.2677 15.0714 21.427 14.9282 21.5774 14.776C21.5792 14.7742 21.581 14.7724 21.5829 14.7707C21.5836 14.7701 21.5844 14.7695 21.5851 14.7688C21.597 14.7588 21.6065 14.7464 21.6132 14.7324C21.6199 14.7184 21.6236 14.7031 21.6239 14.6876C21.6243 14.672 21.6214 14.6566 21.6153 14.6423C21.6093 14.628 21.6003 14.6152 21.5889 14.6046C21.5775 14.5941 21.564 14.586 21.5493 14.5811C21.5346 14.5761 21.519 14.5743 21.5035 14.5758C21.4881 14.5773 21.4731 14.5821 21.4597 14.5898C21.4462 14.5975 21.4345 14.608 21.4254 14.6206L21.4247 14.6216C21.3245 14.7566 21.1584 14.9515 20.9415 15.098C20.7237 15.2452 20.4451 15.3493 20.1291 15.2819M21.4806 14.3415C21.432 14.3462 21.385 14.3613 21.3426 14.3855L21.4806 14.3415ZM21.3426 14.3855C21.3005 14.4097 21.2639 14.4425 21.2352 14.4818L21.3426 14.3855ZM21.2352 14.4818C21.1427 14.6064 20.9953 14.7776 20.8097 14.9029C20.6248 15.0278 20.4114 15.1014 20.1783 15.0517" fill="#047857"/>
<path d="M22.3759 31.5791C21.0382 31.3652 19.1922 30.4282 19.1922 28.6934C19.1922 26.9585 18.9248 16.9585 19.1922 16.2897C19.4595 15.6209 20.0486 15.8653 20.6351 16.0758C20.9112 16.183 21.1481 16.3719 21.3141 16.6173C21.3328 16.6453 21.3575 16.6689 21.3864 16.6862C21.4153 16.7035 21.4477 16.7141 21.4813 16.7174C21.5148 16.7206 21.5487 16.7164 21.5804 16.7049C21.6121 16.6935 21.6409 16.6752 21.6646 16.6513C21.6873 16.6262 21.7039 16.5962 21.7132 16.5637C21.7224 16.5311 21.724 16.4969 21.7178 16.4636C21.7117 16.4304 21.6979 16.399 21.6777 16.3719C21.6574 16.3448 21.6311 16.3228 21.6009 16.3075C21.3599 16.1887 21.0323 15.9867 20.9831 15.755C20.8982 15.3807 21.0094 15.407 21.1698 15.3001C21.3422 15.1629 21.5063 15.0155 21.6612 14.8587C21.6858 14.8379 21.7057 14.8122 21.7195 14.7831C21.7334 14.7541 21.741 14.7225 21.7417 14.6903C21.7424 14.6581 21.7364 14.6261 21.7238 14.5965C21.7113 14.5669 21.6926 14.5402 21.669 14.5183C21.6455 14.4964 21.6175 14.4798 21.587 14.4695C21.5565 14.4592 21.5242 14.4555 21.4922 14.4587C21.4601 14.4618 21.4291 14.4717 21.4012 14.4877C21.3733 14.5037 21.3491 14.5254 21.3302 14.5515C21.1375 14.8112 20.703 15.2839 20.1538 15.1668C19.4044 15.0064 18.896 14.391 19.1353 13.1298C19.3051 12.2581 19.9968 11.3092 20.4084 10.8093C20.4393 10.777 20.4619 10.7376 20.4742 10.6947C20.4864 10.6517 20.4881 10.6064 20.479 10.5626C20.4699 10.5189 20.4503 10.478 20.4219 10.4435C20.3935 10.409 20.3571 10.3819 20.3159 10.3646C20.2501 10.3347 20.1753 10.3315 20.1071 10.3555C20.0389 10.3795 19.9827 10.429 19.9501 10.4936C19.7082 10.9748 19.0555 12.1614 18.5217 12.1402C18.0523 12.1215 17.5032 11.8134 17.2188 11.6309C17.2 11.6182 17.1788 11.6096 17.1565 11.6055C17.1341 11.6015 17.1112 11.6022 17.0891 11.6076C17.0671 11.6129 17.0464 11.6228 17.0284 11.6366C17.0104 11.6504 16.9955 11.6679 16.9846 11.6878C16.9657 11.7246 16.962 11.7675 16.9744 11.807C16.9868 11.8465 17.0142 11.8796 17.0508 11.8991C17.6101 12.1928 18.2059 12.8005 18.2806 13.0763C18.3613 13.3708 18.2008 13.8521 17.6661 14.8417C17.1314 15.8314 15.6291 16.3398 14.8839 15.2432C14.2898 14.3707 14.1319 12.4491 14.2177 11.5825C14.2222 11.5437 14.219 11.5043 14.2082 11.4667C14.1973 11.4291 14.179 11.394 14.1545 11.3636C14.1299 11.3331 14.0994 11.3079 14.065 11.2894C14.0305 11.2709 13.9926 11.2594 13.9537 11.2558C13.9142 11.2532 13.8746 11.2588 13.8374 11.2723C13.8001 11.2857 13.7661 11.3068 13.7374 11.334C13.7087 11.3613 13.686 11.3942 13.6706 11.4307C13.6552 11.4672 13.6476 11.5064 13.6481 11.546C13.6583 12.197 13.9622 13.583 13.7067 14.307C13.3859 15.2169 12.3428 15.671 11.7003 15.1897C11.2487 14.8502 11.3404 13.9811 11.4346 13.4922C11.444 13.4612 11.4449 13.4283 11.4374 13.3968C11.4299 13.3652 11.4142 13.3363 11.3918 13.3128C11.3695 13.2894 11.3414 13.2722 11.3103 13.2632C11.2791 13.2542 11.2462 13.2535 11.2148 13.2614C11.1715 13.2693 11.1325 13.2922 11.1044 13.326C11.0763 13.3598 11.061 13.4024 11.0611 13.4464C11.0611 13.7664 11.0246 14.5727 10.6843 14.7849C10.4042 14.9597 10.136 14.7467 9.98408 14.5778C9.95424 14.5439 9.91261 14.5227 9.86767 14.5184C9.82272 14.5141 9.77785 14.5272 9.74218 14.5549C9.72281 14.5704 9.70697 14.5899 9.69572 14.612C9.68448 14.6342 9.67808 14.6585 9.67695 14.6833C9.67583 14.7081 9.68001 14.7329 9.6892 14.756C9.6984 14.779 9.71241 14.7999 9.7303 14.8171C9.84149 14.9232 10.0248 15.0964 10.2472 15.3043C10.327 15.4172 10.4348 15.6141 10.3635 15.7754C10.2922 15.9366 9.92212 16.0181 9.70229 16.0495C9.68234 16.0525 9.66326 16.0597 9.64631 16.0706C9.62937 16.0815 9.61495 16.096 9.60402 16.1129C9.5931 16.1299 9.58592 16.149 9.58296 16.1689C9.58 16.1888 9.58133 16.2092 9.58686 16.2286V16.2354C9.59294 16.256 9.60357 16.275 9.61797 16.2909C9.63237 16.3069 9.65016 16.3194 9.67004 16.3275C9.68992 16.3357 9.71138 16.3392 9.73283 16.338C9.75427 16.3367 9.77516 16.3307 9.79396 16.3203C10.0902 16.1649 10.787 16.1505 10.9415 16.1556C11.7257 16.2057 12.493 16.7013 12.9097 17.3574C13.3265 18.0135 13.3052 18.9149 13.3519 19.6677C13.4589 21.406 13.4911 29.4097 13.0362 30.0785C12.5813 30.7473 10.9143 31.6436 10.9143 31.6436" fill="#047857"/>
<path fill-rule="evenodd" clip-rule="evenodd" d="M20.363 10.2567C20.4212 10.2815 20.4725 10.3199 20.5127 10.3687C20.5532 10.4179 20.5812 10.4762 20.5942 10.5387C20.6072 10.6011 20.6048 10.6657 20.5873 10.7271C20.5702 10.7869 20.5391 10.8417 20.4968 10.8872C20.2935 11.1342 20.0227 11.4903 19.782 11.8908C19.5396 12.2941 19.332 12.7356 19.2509 13.152C19.1345 13.7654 19.2035 14.2032 19.3757 14.5024C19.5467 14.7993 19.8293 14.9769 20.1783 15.0517M20.363 10.2567C20.2699 10.2149 20.1642 10.2105 20.0679 10.2445C19.971 10.2786 19.8911 10.3489 19.8449 10.4406C19.725 10.6792 19.5047 11.0894 19.2504 11.4356C19.1231 11.609 18.9905 11.7617 18.861 11.8688C18.7289 11.978 18.6164 12.0261 18.5263 12.0225C18.313 12.014 18.074 11.9389 17.8483 11.8393C17.6247 11.7406 17.4223 11.6216 17.2834 11.5325C17.2513 11.5111 17.2152 11.4965 17.1772 11.4897C17.1388 11.4828 17.0993 11.4839 17.0613 11.4932C17.0233 11.5024 16.9877 11.5194 16.9567 11.5432C16.9256 11.567 16.8999 11.597 16.8812 11.6313L16.8798 11.6341C16.8468 11.6984 16.8404 11.7732 16.862 11.8422C16.8836 11.9112 16.9315 11.969 16.9953 12.003L16.996 12.0033C17.2631 12.1436 17.5428 12.3613 17.7651 12.5786C17.8759 12.6869 17.9706 12.7934 18.0413 12.8879C18.114 12.985 18.1542 13.0602 18.1669 13.1071L18.167 13.1074C18.1979 13.2202 18.1871 13.3865 18.0928 13.66C17.9991 13.9314 17.8291 14.2923 17.5625 14.7858C17.3117 15.2499 16.8315 15.603 16.3294 15.7096C15.8334 15.815 15.323 15.68 14.9812 15.177C14.6998 14.7638 14.5147 14.0875 14.4122 13.3934C14.3104 12.7034 14.2931 12.0168 14.3346 11.5951C14.3408 11.5411 14.3363 11.4863 14.3212 11.434C14.306 11.3814 14.2804 11.3323 14.246 11.2896C14.2115 11.247 14.1689 11.2116 14.1206 11.1857C14.0723 11.1598 14.0193 11.1437 13.9647 11.1386L13.9613 11.1383C13.9056 11.1346 13.8497 11.1426 13.7972 11.1616C13.7447 11.1806 13.6967 11.2102 13.6562 11.2487C13.6158 11.2871 13.5837 11.3336 13.562 11.385C13.5404 11.4365 13.5296 11.4919 13.5304 11.5477C13.533 11.7169 13.5546 11.9312 13.5804 12.1633C13.586 12.2129 13.5917 12.2635 13.5975 12.3148C13.6192 12.5055 13.642 12.7066 13.6597 12.9094C13.7052 13.4298 13.7138 13.933 13.5956 14.2678C13.4463 14.6912 13.129 15.0078 12.7768 15.1622C12.4242 15.3168 12.05 15.3046 11.7708 15.0955C11.5873 14.9575 11.5012 14.7 11.4802 14.389C11.4595 14.0851 11.5032 13.7595 11.5491 13.5197C11.5627 13.4707 11.5637 13.419 11.5519 13.3695C11.5395 13.3177 11.5137 13.2702 11.477 13.2317C11.4404 13.1931 11.3941 13.165 11.343 13.1502C11.2931 13.1357 11.2403 13.1343 11.1898 13.1463C11.1209 13.1598 11.0587 13.1967 11.0138 13.2508C10.9681 13.3059 10.9431 13.3752 10.9433 13.4467L11.0611 13.4464H10.9433C10.9433 13.6033 10.9343 13.8764 10.8847 14.1338C10.8599 14.2625 10.8257 14.383 10.7799 14.4816C10.7336 14.5813 10.68 14.6488 10.6219 14.685C10.5212 14.7479 10.426 14.7426 10.3329 14.7022C10.2345 14.6595 10.1431 14.5785 10.0719 14.4994C10.0223 14.4434 9.95324 14.4083 9.8787 14.4012C9.80393 14.3941 9.72927 14.4158 9.66993 14.4619L9.66842 14.463C9.63601 14.4891 9.60951 14.5217 9.59069 14.5587C9.57187 14.5958 9.56116 14.6365 9.55928 14.678C9.5574 14.7195 9.56438 14.7609 9.57978 14.7996C9.59517 14.8382 9.61861 14.8731 9.64854 14.9019L9.64896 14.9023C9.759 15.0073 9.93918 15.1775 10.1577 15.3818C10.1923 15.4321 10.2288 15.495 10.2503 15.5591C10.2735 15.6283 10.2748 15.6847 10.2557 15.7278C10.2512 15.7381 10.2363 15.7578 10.1975 15.7826C10.16 15.8066 10.1097 15.8293 10.0501 15.8498C9.93118 15.8909 9.7919 15.9178 9.68557 15.933L9.68488 15.9331C9.64837 15.9385 9.61343 15.9517 9.58241 15.9717C9.5514 15.9917 9.525 16.0181 9.505 16.0491C9.485 16.0802 9.47185 16.1151 9.46643 16.1516C9.46186 16.1824 9.46288 16.2137 9.46938 16.2441C9.47 16.2524 9.4715 16.2607 9.47387 16.2687C9.48494 16.3062 9.5043 16.3408 9.53051 16.3698C9.55673 16.3988 9.58913 16.4216 9.62532 16.4365C9.66152 16.4513 9.70058 16.4578 9.73964 16.4555C9.77815 16.4533 9.81567 16.4425 9.84951 16.424C9.97522 16.3585 10.2017 16.3173 10.4322 16.295C10.656 16.2732 10.8622 16.2709 10.9357 16.2732C11.6782 16.3213 12.412 16.7936 12.8103 17.4206C13.0054 17.7278 13.1012 18.0977 13.1528 18.4916C13.1897 18.7732 13.2033 19.0583 13.2167 19.3375C13.2221 19.4512 13.2275 19.5639 13.2343 19.675C13.2875 20.5395 13.3224 22.9714 13.287 25.2724C13.2693 26.4225 13.234 27.5376 13.175 28.4061C13.1454 28.8407 13.11 29.2114 13.0682 29.4932C13.0473 29.6342 13.0251 29.7508 13.0018 29.8411C12.9776 29.9347 12.9551 29.9883 12.9388 30.0123C12.8349 30.165 12.6563 30.3377 12.4386 30.5137C12.2227 30.6883 11.9753 30.8606 11.7404 31.0132C11.5058 31.1656 11.285 31.2975 11.1229 31.3912C11.0418 31.4381 10.9755 31.4754 10.9296 31.5009C10.9066 31.5137 10.8887 31.5235 10.8766 31.5301L10.863 31.5375L10.8587 31.5398C10.8014 31.5706 10.7798 31.6421 10.8105 31.6994C10.8413 31.7566 10.9127 31.7781 10.97 31.7473L10.9142 31.6436C10.97 31.7473 10.97 31.7473 10.97 31.7473L10.9704 31.7471L10.9751 31.7445L10.9895 31.7367C11.002 31.7299 11.0204 31.7198 11.0439 31.7067C11.0909 31.6806 11.1584 31.6427 11.2407 31.5951C11.4053 31.4999 11.6297 31.3659 11.8687 31.2106C12.1074 31.0555 12.3621 30.8783 12.5867 30.6968C12.8095 30.5166 13.0098 30.3265 13.1335 30.1447C13.174 30.0851 13.2045 29.9979 13.2298 29.8999C13.256 29.7986 13.2796 29.673 13.3011 29.5277C13.3442 29.237 13.3801 28.8592 13.4099 28.4221C13.4694 27.5475 13.5047 26.4277 13.5224 25.276C13.5578 22.9734 13.5231 20.5342 13.4694 19.6605C13.4629 19.5563 13.4577 19.4477 13.4524 19.3364C13.4389 19.0535 13.4245 18.7528 13.3862 18.461C13.3326 18.052 13.2306 17.6432 13.009 17.2943C12.5741 16.6097 11.7743 16.0908 10.9489 16.0381L10.9453 16.0379C10.8627 16.0352 10.6448 16.0377 10.4094 16.0606C10.1794 16.0829 9.90992 16.1265 9.73921 16.216L9.73683 16.2173C9.73346 16.2192 9.72971 16.2202 9.72587 16.2205C9.72203 16.2207 9.71818 16.2201 9.71461 16.2186C9.71105 16.2171 9.70786 16.2149 9.70528 16.212C9.70439 16.211 9.70357 16.21 9.70285 16.2089C9.70213 16.2046 9.70118 16.2004 9.7 16.1963C9.69906 16.193 9.69883 16.1896 9.69933 16.1862C9.69984 16.1828 9.70105 16.1796 9.7029 16.1767C9.70475 16.1738 9.7072 16.1714 9.71007 16.1695C9.71294 16.1677 9.71617 16.1665 9.71955 16.166L9.70222 16.0495L9.71887 16.1661C9.83236 16.1498 9.98803 16.1203 10.1269 16.0724C10.1962 16.0485 10.2655 16.0186 10.3244 15.981C10.3818 15.9442 10.44 15.8933 10.4711 15.823C10.5233 15.7048 10.5063 15.5821 10.4735 15.4843C10.4404 15.3856 10.3865 15.2975 10.3433 15.2364C10.3386 15.2298 10.3334 15.2238 10.3275 15.2183C10.1055 15.0107 9.92259 14.838 9.81176 14.7322C9.80599 14.7266 9.80146 14.7198 9.79849 14.7124C9.79548 14.7048 9.79412 14.6967 9.79449 14.6886C9.79485 14.6805 9.79694 14.6726 9.80062 14.6654C9.80415 14.6584 9.80906 14.6523 9.81506 14.6473C9.82692 14.6384 9.8417 14.6342 9.85649 14.6356C9.87161 14.637 9.88561 14.6442 9.89565 14.6556L9.89648 14.6565C9.97718 14.7462 10.0956 14.8559 10.2392 14.9182C10.3882 14.9829 10.5672 14.9967 10.7466 14.8847C10.8586 14.8149 10.9372 14.702 10.9935 14.5808C11.0502 14.4585 11.089 14.3177 11.1159 14.1783C11.1696 13.8996 11.1788 13.6094 11.1788 13.4464L11.1788 13.446C11.1787 13.4297 11.1844 13.4138 11.1949 13.4012C11.2054 13.3886 11.2199 13.3801 11.236 13.3771C11.2384 13.3767 11.2408 13.3762 11.2432 13.3756C11.2544 13.3728 11.2662 13.373 11.2773 13.3763C11.2884 13.3795 11.2985 13.3856 11.3065 13.394C11.3145 13.4024 11.3201 13.4128 11.3228 13.424C11.3255 13.4353 11.3252 13.4471 11.3218 13.4582C11.3207 13.4621 11.3197 13.466 11.3189 13.4699C11.271 13.7185 11.2225 14.0694 11.2452 14.405C11.2677 14.7356 11.3615 15.0824 11.6294 15.2838C11.9927 15.5559 12.4615 15.5575 12.8713 15.3779C13.2815 15.198 13.6461 14.8327 13.8176 14.3462C13.955 13.9571 13.9394 13.4053 13.8942 12.8889C13.8762 12.6828 13.853 12.4777 13.8313 12.2867C13.8255 12.2358 13.8199 12.1859 13.8144 12.1372C13.7884 11.9038 13.7682 11.7006 13.7658 11.5443C13.7655 11.521 13.77 11.4979 13.779 11.4764C13.7881 11.4549 13.8015 11.4355 13.8184 11.4194C13.8353 11.4033 13.8554 11.3909 13.8773 11.383C13.8988 11.3752 13.9215 11.3719 13.9442 11.3731C13.967 11.3755 13.989 11.3823 14.0092 11.3931C14.0298 11.4042 14.0481 11.4193 14.0628 11.4376C14.0775 11.4558 14.0885 11.4768 14.095 11.4993C14.1015 11.5219 14.1034 11.5454 14.1007 11.5687L14.1004 11.5709C14.0564 12.0159 14.0752 12.7229 14.1793 13.4278C14.2829 14.1293 14.4738 14.8501 14.7865 15.3094C15.1899 15.903 15.8032 16.0621 16.3783 15.94C16.9474 15.8191 17.4857 15.4232 17.7696 14.8977C18.0377 14.4015 18.2153 14.0269 18.3153 13.7367C18.4147 13.4487 18.4438 13.2272 18.3942 13.0456M20.2672 10.4718C20.2291 10.4545 20.1857 10.4526 20.1462 10.4665C20.1067 10.4805 20.0741 10.5091 20.0552 10.5465M20.3309 10.5183C20.3147 10.4985 20.2938 10.483 20.2702 10.4731L20.2672 10.4718M20.3309 10.5183C20.3472 10.5381 20.3585 10.5615 20.3637 10.5866L20.3309 10.5183ZM20.3637 10.5866C20.3689 10.6117 20.3679 10.6377 20.3609 10.6623L20.3637 10.5866ZM20.3609 10.6623C20.3538 10.6869 20.3409 10.7095 20.3232 10.728L20.3609 10.6623ZM20.3232 10.728C20.3212 10.7301 20.3193 10.7323 20.3175 10.7345L20.3232 10.728ZM20.3175 10.7345C20.1093 10.9873 19.8297 11.3543 19.5802 11.7695L20.3175 10.7345ZM19.5802 11.7695C19.3314 12.1834 19.1083 12.6521 19.0197 13.1073L19.5802 11.7695ZM17.0886 11.7429C17.0844 11.7519 17.0837 11.7622 17.0867 11.7718C17.0898 11.7817 17.0966 11.7901 17.1058 11.7951C17.3979 11.9485 17.6956 12.1814 17.9297 12.4102C18.047 12.525 18.1503 12.6405 18.2298 12.7468C18.3072 12.8502 18.3694 12.9543 18.3941 13.0452M19.0197 13.1073L19.0196 13.1079L19.0197 13.1073ZM19.0196 13.1079C18.8967 13.7556 18.9622 14.256 19.1717 14.6199L19.0196 13.1079ZM19.1717 14.6199C19.3824 14.986 19.7287 15.1962 20.1291 15.2819L19.1717 14.6199ZM21.4806 14.3415C21.5292 14.3367 21.5783 14.3424 21.6246 14.358C21.6708 14.3736 21.7133 14.3988 21.7491 14.432C21.7849 14.4653 21.8132 14.5057 21.8322 14.5507C21.8512 14.5957 21.8605 14.6442 21.8593 14.693C21.8582 14.7418 21.8467 14.7898 21.8257 14.8339C21.8054 14.8762 21.7768 14.914 21.7415 14.9448C21.5844 15.1037 21.4179 15.2531 21.243 15.3922C21.2404 15.3942 21.2377 15.3962 21.235 15.398C21.203 15.4193 21.1686 15.4384 21.1434 15.4523C21.1342 15.4574 21.1263 15.4618 21.1201 15.4654C21.0918 15.4819 21.0843 15.4897 21.081 15.4945C21.0762 15.5014 21.0548 15.5396 21.0978 15.729L21.0981 15.7305C21.114 15.805 21.1806 15.8916 21.2934 15.9816C21.4023 16.0684 21.5361 16.1443 21.6529 16.2019L21.654 16.2025C21.7004 16.2259 21.7407 16.2598 21.7718 16.3014C21.803 16.3429 21.8241 16.3911 21.8335 16.4422C21.843 16.4933 21.8405 16.5459 21.8263 16.5958C21.8122 16.6458 21.7866 16.6918 21.7518 16.7303C21.7506 16.7317 21.7493 16.733 21.7481 16.7342C21.712 16.7705 21.6684 16.7983 21.6202 16.8157C21.5721 16.833 21.5208 16.8395 21.4699 16.8346C21.419 16.8296 21.3698 16.8135 21.3259 16.7872C21.2821 16.761 21.2446 16.7254 21.2163 16.683C21.064 16.458 20.8469 16.2847 20.5938 16.1861C20.5726 16.1785 20.5515 16.1709 20.5306 16.1634C20.254 16.0637 20.0051 15.9739 19.7921 15.9707C19.6822 15.9691 19.5903 15.9912 19.5131 16.0425C19.4357 16.094 19.3618 16.1824 19.3014 16.3334C19.2913 16.3587 19.2779 16.4221 19.265 16.5336C19.2527 16.6407 19.242 16.7805 19.2329 16.9498C19.2148 17.2882 19.2033 17.7386 19.197 18.2674C19.1845 19.3246 19.1929 20.6903 19.2096 22.0904C19.2264 23.4986 19.2517 24.9424 19.2726 26.1398C19.2933 27.3209 19.3098 28.2624 19.3098 28.6934C19.3098 29.5135 19.7446 30.1501 20.3536 30.6129C20.9641 31.0769 21.741 31.3584 22.3944 31.4629C22.4586 31.4731 22.5023 31.5335 22.492 31.5977C22.4818 31.6619 22.4214 31.7056 22.3572 31.6954C21.673 31.586 20.858 31.292 20.2111 30.8003C19.5626 30.3075 19.0744 29.6081 19.0744 28.6934C19.0744 28.2634 19.058 27.3258 19.0373 26.1479C19.0163 24.951 18.991 23.5061 18.9741 22.0932C18.9574 20.6927 18.9491 19.3247 18.9616 18.2646C18.9679 17.7347 18.9794 17.2805 18.9978 16.9372C19.007 16.7657 19.018 16.6205 19.0311 16.5067C19.0437 16.3974 19.0595 16.3043 19.0828 16.246C19.1561 16.0626 19.2561 15.9307 19.3827 15.8465C19.5094 15.7622 19.6515 15.7331 19.7956 15.7353C20.0504 15.7391 20.337 15.8428 20.6013 15.9385C20.626 15.9474 20.6505 15.9563 20.6748 15.965L20.6776 15.966C20.9761 16.0819 21.2321 16.2861 21.4115 16.5514L21.4119 16.5519C21.4209 16.5655 21.4328 16.5768 21.4468 16.5851C21.4607 16.5935 21.4764 16.5986 21.4926 16.6002C21.5087 16.6018 21.5251 16.5997 21.5404 16.5942C21.5548 16.589 21.568 16.5808 21.5791 16.5702C21.5887 16.559 21.5958 16.5458 21.5998 16.5316C21.6041 16.5164 21.6049 16.5005 21.602 16.4851C21.5992 16.4696 21.5928 16.4551 21.5833 16.4425C21.574 16.43 21.562 16.4199 21.5482 16.4128C21.4241 16.3516 21.2739 16.2672 21.1466 16.1656C21.0232 16.0672 20.9017 15.9372 20.868 15.7804C20.8262 15.5958 20.8181 15.4602 20.8877 15.3601C20.9216 15.3113 20.9667 15.2822 21.0017 15.2619C21.0159 15.2536 21.0283 15.2468 21.04 15.2404C21.0603 15.2292 21.0785 15.2191 21.1004 15.2047C21.2677 15.0714 21.427 14.9282 21.5774 14.776C21.5792 14.7742 21.581 14.7724 21.5829 14.7707C21.5836 14.7701 21.5844 14.7695 21.5851 14.7688C21.597 14.7588 21.6065 14.7464 21.6132 14.7324C21.6199 14.7184 21.6236 14.7031 21.6239 14.6876C21.6243 14.672 21.6214 14.6566 21.6153 14.6423C21.6093 14.628 21.6003 14.6152 21.5889 14.6046C21.5775 14.5941 21.564 14.586 21.5493 14.5811C21.5346 14.5761 21.519 14.5743 21.5035 14.5758C21.4881 14.5773 21.4731 14.5821 21.4597 14.5898C21.4462 14.5975 21.4345 14.608 21.4254 14.6206L21.4247 14.6216C21.3245 14.7566 21.1584 14.9515 20.9415 15.098C20.7237 15.2452 20.4451 15.3493 20.1291 15.2819M21.4806 14.3415C21.432 14.3462 21.385 14.3613 21.3426 14.3855L21.4806 14.3415ZM21.3426 14.3855C21.3005 14.4097 21.2639 14.4425 21.2352 14.4818L21.3426 14.3855ZM21.2352 14.4818C21.1427 14.6064 20.9953 14.7776 20.8097 14.9029C20.6248 15.0278 20.4114 15.1014 20.1783 15.0517" fill="#047857"/>
<g style="mix-blend-mode:multiply" opacity="0.5">
<path d="M16.2249 30.0318C16.2249 30.0318 15.9754 29.5532 15.2853 29.9741C14.5953 30.3951 14.5215 30.9714 14.0394 31.125C13.5573 31.2787 13.2534 31.1055 13.1575 31.5078C13.0616 31.9101 12.9657 32.0638 13.0421 32.1215C13.1185 32.1792 13.0998 31.6971 13.368 31.5851C13.6362 31.473 14.1158 31.451 14.4799 31.1607C14.844 30.8704 15.669 29.9173 16.2249 30.0318Z" fill="#047857"/>
</g>
<path fill-rule="evenodd" clip-rule="evenodd" d="M12.2696 16.3842C12.3014 16.3274 12.3731 16.3071 12.4299 16.3389C12.9102 16.6076 13.2677 17.052 13.4272 17.5788C13.446 17.641 13.4108 17.7067 13.3486 17.7256C13.2864 17.7444 13.2207 17.7092 13.2018 17.647C13.06 17.1786 12.7421 16.7833 12.3149 16.5444C12.2582 16.5126 12.2379 16.4409 12.2696 16.3842Z" fill="#047857"/>
<path fill-rule="evenodd" clip-rule="evenodd" d="M13.3606 17.6861C13.4247 17.6754 13.4854 17.7187 13.4961 17.7828C13.5291 17.9809 13.5522 18.1806 13.5653 18.381C13.5696 18.4459 13.5204 18.5019 13.4555 18.5061C13.3906 18.5104 13.3346 18.4612 13.3304 18.3963C13.3178 18.2037 13.2956 18.0119 13.2638 17.8216C13.2531 17.7574 13.2964 17.6968 13.3606 17.6861Z" fill="#047857"/>
<path fill-rule="evenodd" clip-rule="evenodd" d="M13.5533 19.1181C13.6182 19.1158 13.6727 19.1667 13.675 19.2317L13.5573 19.2357L13.4396 19.2398C13.4374 19.1748 13.4883 19.1203 13.5533 19.1181ZM13.5573 19.2357C13.4396 19.2398 13.4396 19.2397 13.4396 19.2398L13.4417 19.3025C13.4431 19.3437 13.4451 19.4043 13.4475 19.4823C13.4525 19.6382 13.4593 19.8633 13.4671 20.14C13.4827 20.6934 13.5018 21.4532 13.5163 22.2785C13.5453 23.9314 13.5553 25.8406 13.4806 26.8856C13.476 26.9505 13.5248 27.0068 13.5897 27.0114C13.6545 27.0161 13.7108 26.9673 13.7155 26.9024C13.791 25.8451 13.7807 23.9251 13.7517 22.2744C13.7372 21.448 13.718 20.6874 13.7025 20.1334C13.6947 19.8564 13.6878 19.631 13.6829 19.4748C13.6804 19.3968 13.6784 19.336 13.6771 19.2947L13.675 19.2317C13.675 19.2316 13.675 19.2317 13.5573 19.2357Z" fill="#047857"/>
<path fill-rule="evenodd" clip-rule="evenodd" d="M13.6038 27.0633C13.6688 27.0665 13.7188 27.1217 13.7156 27.1867L13.598 27.1809L13.4805 27.1751C13.4837 27.1102 13.5389 27.0601 13.6038 27.0633ZM13.598 27.1809L13.4805 27.1751L13.4775 27.2347C13.4756 27.2728 13.4728 27.3275 13.4694 27.3938C13.4626 27.5264 13.4533 27.7055 13.443 27.8913C13.4224 28.2663 13.3987 28.6597 13.3854 28.7632C13.3771 28.8277 13.4227 28.8867 13.4871 28.895C13.5516 28.9033 13.6106 28.8577 13.6189 28.7932C13.6336 28.6787 13.6578 28.2733 13.6781 27.9042C13.6884 27.718 13.6978 27.5386 13.7046 27.4058C13.708 27.3394 13.7107 27.2846 13.7127 27.2465L13.7156 27.1867L13.598 27.1809Z" fill="#047857"/>
<path fill-rule="evenodd" clip-rule="evenodd" d="M14.127 20.2783C14.192 20.2765 14.2461 20.3278 14.2479 20.3928L14.2759 21.4163C14.2776 21.4813 14.2264 21.5355 14.1614 21.5372C14.0964 21.539 14.0423 21.4878 14.0405 21.4228L14.0125 20.3992C14.0107 20.3342 14.062 20.2801 14.127 20.2783Z" fill="#047857"/>
<path fill-rule="evenodd" clip-rule="evenodd" d="M14.1697 21.6431C14.2347 21.6419 14.2884 21.6937 14.2895 21.7587L14.1718 21.7608L14.0541 21.7628C14.0529 21.6978 14.1047 21.6442 14.1697 21.6431ZM14.1718 21.7608C14.0541 21.7628 14.0541 21.7628 14.0541 21.7628L14.0569 21.93C14.0587 22.0373 14.0611 22.1921 14.0639 22.3817C14.0694 22.7611 14.0762 23.2801 14.0812 23.8387C14.0914 24.9574 14.0948 26.2306 14.0678 26.8618C14.065 26.9268 14.1154 26.9817 14.1804 26.9845C14.2453 26.9873 14.3002 26.9368 14.303 26.8719C14.3303 26.2333 14.3269 24.9535 14.3167 23.8366C14.3116 23.2774 14.3048 22.758 14.2993 22.3783C14.2965 22.1885 14.2941 22.0336 14.2923 21.9262L14.2895 21.7587C14.2895 21.7586 14.2895 21.7587 14.1718 21.7608Z" fill="#047857"/>
<path fill-rule="evenodd" clip-rule="evenodd" d="M14.6874 27.5962C14.7524 27.5946 14.8064 27.6459 14.808 27.7109L14.8216 28.2431C14.8233 28.3081 14.7719 28.3621 14.7069 28.3638C14.6419 28.3654 14.5879 28.3141 14.5863 28.2491L14.5727 27.7169C14.571 27.6519 14.6224 27.5979 14.6874 27.5962Z" fill="#047857"/>
<path fill-rule="evenodd" clip-rule="evenodd" d="M18.3729 12.8117C18.4295 12.7797 18.5013 12.7997 18.5333 12.8563L18.4308 12.9142C18.5333 12.8563 18.5333 12.8564 18.5334 12.8564L18.5334 12.8565L18.5336 12.8568L18.5338 12.8573L18.5345 12.8585L18.5362 12.8616C18.5374 12.864 18.5389 12.867 18.5407 12.8707C18.5441 12.8779 18.5485 12.8877 18.5533 12.9C18.5629 12.9247 18.5743 12.9594 18.5844 13.0047C18.6046 13.0953 18.6191 13.227 18.6032 13.4027L18.6028 13.4067L18.6028 13.4067C18.5724 13.6503 18.5043 13.8877 18.4009 14.1104C18.3736 14.1694 18.3036 14.195 18.2446 14.1677C18.1856 14.1403 18.16 14.0703 18.1874 14.0113C18.2801 13.8114 18.3414 13.5982 18.3689 13.3795C18.3824 13.2286 18.3693 13.122 18.3546 13.0559C18.3472 13.0227 18.3393 12.9994 18.3339 12.9856C18.3312 12.9787 18.3292 12.9742 18.3281 12.972C18.3278 12.9713 18.3275 12.9708 18.3274 12.9706C18.3274 12.9706 18.3274 12.9706 18.3274 12.9706C18.3273 12.9704 18.3273 12.9703 18.3273 12.9703L18.3276 12.9708L18.3279 12.9714L18.3281 12.9717L18.3282 12.9719" fill="#047857"/>
<path fill-rule="evenodd" clip-rule="evenodd" d="M18.2798 14.1606C18.3377 14.1902 18.3607 14.2611 18.3312 14.319L18.2263 14.2654L18.1215 14.2119C18.151 14.154 18.2219 14.131 18.2798 14.1606ZM18.1215 14.2119L18.2263 14.2654L18.3312 14.319L18.3274 14.3264L18.3167 14.3471C18.3075 14.365 18.2942 14.3907 18.278 14.4218C18.2456 14.484 18.2014 14.5682 18.154 14.6559C18.1067 14.7434 18.0559 14.8353 18.0106 14.9126C17.9675 14.986 17.9233 15.0571 17.8901 15.0945C17.8471 15.1433 17.7727 15.1479 17.724 15.1048C17.6753 15.0617 17.6707 14.9873 17.7137 14.9386C17.729 14.9214 17.7619 14.8712 17.8075 14.7935C17.8508 14.7196 17.9001 14.6306 17.9468 14.544C17.9934 14.4576 18.0371 14.3746 18.0692 14.313C18.0852 14.2823 18.0983 14.2569 18.1074 14.2393L18.1178 14.219L18.1215 14.2119Z" fill="#047857"/>
<path fill-rule="evenodd" clip-rule="evenodd" d="M13.4115 15.1831C13.4555 15.231 13.4523 15.3054 13.4044 15.3494C13.2344 15.5056 13.0284 15.6172 12.8048 15.6745C12.5812 15.7317 12.3469 15.7327 12.1228 15.6775C12.0596 15.6619 12.0211 15.5981 12.0367 15.535C12.0522 15.4719 12.116 15.4333 12.1791 15.4489C12.3655 15.4948 12.5604 15.494 12.7464 15.4464C12.9324 15.3988 13.1037 15.3059 13.2451 15.176C13.293 15.132 13.3675 15.1352 13.4115 15.1831Z" fill="#047857"/>
<path fill-rule="evenodd" clip-rule="evenodd" d="M14.1031 27.6234C14.1681 27.6234 14.2208 27.6761 14.2208 27.7411V30.2805C14.2208 30.2923 14.219 30.304 14.2155 30.3153L14.1031 30.2805C14.2155 30.3153 14.2155 30.3153 14.2155 30.3154L14.2154 30.3156L14.2153 30.316L14.215 30.3169L14.2143 30.3191L14.2122 30.325C14.2106 30.3295 14.2083 30.3354 14.2053 30.3425C14.1993 30.3566 14.1903 30.3754 14.1775 30.3981C14.1518 30.4434 14.1108 30.5035 14.0469 30.5711C13.9188 30.7067 13.7016 30.8695 13.3386 31.0045C13.3334 31.0065 13.3281 31.008 13.3226 31.0092C13.1532 31.0461 13.0024 31.1419 12.8972 31.2797L12.8962 31.2809L12.8962 31.2809C12.8294 31.3661 12.7771 31.4434 12.7243 31.5213C12.6941 31.566 12.6637 31.6109 12.6303 31.6577C12.5417 31.7818 12.4419 31.9033 12.2942 32.0196C12.2431 32.0598 12.1691 32.051 12.1289 32C12.0887 31.9489 12.0975 31.8749 12.1485 31.8346C12.2724 31.7371 12.3573 31.6349 12.4386 31.5209C12.4654 31.4835 12.493 31.4428 12.5221 31.3999C12.5782 31.3172 12.6397 31.2266 12.7105 31.1362C12.8479 30.9567 13.0438 30.8311 13.264 30.781C13.5924 30.6578 13.7759 30.5151 13.8757 30.4094C13.9262 30.356 13.956 30.3113 13.9726 30.282C13.9783 30.272 13.9824 30.2638 13.9853 30.2576V27.7411C13.9853 27.6761 14.038 27.6234 14.1031 27.6234Z" fill="#047857"/>
<path fill-rule="evenodd" clip-rule="evenodd" d="M14.5303 18.7174C14.5953 18.7162 14.649 18.7679 14.6502 18.8329L14.7674 24.9515C14.7686 25.0165 14.7169 25.0702 14.6519 25.0715C14.5869 25.0727 14.5332 25.021 14.5319 24.956L14.4148 18.8374C14.4136 18.7724 14.4653 18.7187 14.5303 18.7174Z" fill="#047857"/>
<path fill-rule="evenodd" clip-rule="evenodd" d="M14.9643 30.8538C14.8507 30.9631 14.7374 31.0721 14.6269 31.1632C14.3969 31.353 14.2301 31.4437 14.1145 31.4862C14.0564 31.5075 14.0106 31.5168 13.9759 31.52C13.9586 31.5216 13.9441 31.5217 13.9324 31.521C13.9265 31.5207 13.9213 31.5202 13.9169 31.5196C13.9146 31.5192 13.9126 31.5189 13.9107 31.5186L13.908 31.5181L13.9068 31.5178L13.9062 31.5177L13.9059 31.5176C13.9058 31.5176 13.9056 31.5176 13.9303 31.4046L13.9056 31.5176C13.8421 31.5037 13.8018 31.441 13.8157 31.3774C13.829 31.3169 13.8866 31.2775 13.947 31.286C13.9483 31.286 13.9507 31.2859 13.9541 31.2856C13.9662 31.2844 13.992 31.2803 14.0334 31.2651C14.1168 31.2345 14.2607 31.1602 14.4771 30.9816C14.5804 30.8963 14.6878 30.7931 14.8039 30.6814C14.8084 30.677 14.813 30.6727 14.8176 30.6682C14.9375 30.5529 15.0657 30.4303 15.2008 30.3189C15.469 30.0979 15.7826 29.9056 16.1451 29.9056C16.4906 29.9056 16.7495 30.0107 16.9229 30.1175C17.0093 30.1707 17.0743 30.2242 17.1183 30.2652C17.1403 30.2857 17.1571 30.3031 17.1688 30.3158C17.1746 30.3222 17.1792 30.3274 17.1825 30.3313L17.1865 30.336L17.1877 30.3376L17.1882 30.3382L17.1884 30.3384L17.1885 30.3385C17.1885 30.3385 17.1885 30.3386 17.1021 30.4077L17.1886 30.3386C17.2291 30.3894 17.2209 30.4635 17.1701 30.504C17.1193 30.5446 17.0452 30.5364 17.0046 30.4856L17.0966 30.4121C17.0046 30.4856 17.0047 30.4856 17.0047 30.4857L17.0047 30.4857L17.0048 30.4859L17.0034 30.4842C17.0018 30.4823 16.9991 30.4792 16.9952 30.4749C16.9874 30.4664 16.9749 30.4534 16.9578 30.4375C16.9235 30.4056 16.8708 30.3619 16.7994 30.3179C16.6573 30.2304 16.4405 30.1411 16.1451 30.1411C15.8669 30.1411 15.6072 30.2891 15.3506 30.5006C15.2234 30.6054 15.1013 30.722 14.9808 30.8379C14.9753 30.8432 14.9698 30.8485 14.9643 30.8538Z" fill="#047857"/>
<path fill-rule="evenodd" clip-rule="evenodd" d="M17.122 30.4418C17.1806 30.4136 17.2509 30.4383 17.2791 30.4969C17.3551 30.6554 17.4047 30.8253 17.4256 30.9998C17.4334 31.0644 17.3873 31.123 17.3228 31.1307C17.2582 31.1385 17.1996 31.0924 17.1918 31.0279C17.174 30.879 17.1317 30.734 17.0668 30.5988C17.0387 30.5402 17.0634 30.4699 17.122 30.4418Z" fill="#047857"/>
<path fill-rule="evenodd" clip-rule="evenodd" d="M18.1361 30.0084C18.0402 30.0168 17.958 30.0574 17.8915 30.1498C17.7582 30.3352 17.8078 30.56 17.9233 30.7703C17.9793 30.8722 18.0459 30.9611 18.0993 31.0251C18.1258 31.0569 18.1487 31.0821 18.1647 31.0991C18.1727 31.1076 18.1789 31.114 18.183 31.1182L18.1876 31.1227L18.1885 31.1237C18.2352 31.169 18.2363 31.2436 18.1911 31.2902C18.1458 31.3369 18.0713 31.338 18.0246 31.2927L18.1066 31.2082C18.0246 31.2927 18.0246 31.2927 18.0246 31.2927L18.0243 31.2924L18.0237 31.2918L18.0219 31.29L18.0155 31.2836C18.0101 31.2782 18.0025 31.2704 17.9932 31.2604C17.9744 31.2405 17.9484 31.2118 17.9185 31.1759C17.8589 31.1045 17.7824 31.0029 17.717 30.8837C17.5897 30.652 17.484 30.3132 17.7004 30.0123C17.8088 29.8616 17.9547 29.7879 18.1156 29.7738C18.2709 29.7603 18.4341 29.8024 18.5877 29.8684C18.895 30.0003 19.203 30.2444 19.4117 30.4431C19.4588 30.4879 19.4606 30.5625 19.4158 30.6095C19.3709 30.6566 19.2964 30.6585 19.2493 30.6136C19.0498 30.4236 18.7653 30.2009 18.4948 30.0847C18.3595 30.0267 18.2375 29.9995 18.1361 30.0084Z" fill="#047857"/>
<path fill-rule="evenodd" clip-rule="evenodd" d="M19.7301 30.6768C19.7098 30.6287 19.659 30.5984 19.6049 30.6062C19.5405 30.6155 19.4959 30.6751 19.5051 30.7395L19.6216 30.7227C19.5051 30.7395 19.5052 30.7398 19.5052 30.7401L19.5053 30.7407L19.5055 30.742L19.5059 30.7444C19.5062 30.7461 19.5066 30.7478 19.507 30.7494C19.5077 30.7528 19.5087 30.7562 19.5097 30.7596C19.5119 30.7664 19.5146 30.7732 19.5179 30.7801C19.5244 30.7938 19.5334 30.8079 19.5451 30.8225C19.5682 30.8514 19.6044 30.8859 19.6621 30.9274C19.7768 31.0101 19.9892 31.1301 20.3884 31.2959C20.3899 31.2967 20.3923 31.2979 20.3953 31.2996C20.4023 31.3035 20.4127 31.3097 20.4248 31.318C20.4496 31.335 20.4779 31.3585 20.4994 31.3865C20.5205 31.4141 20.5321 31.4419 20.533 31.471C20.5339 31.4989 20.5254 31.5421 20.4807 31.6024C20.3115 31.8152 20.1219 32.0111 19.9147 32.1871C19.8651 32.2291 19.859 32.3034 19.9011 32.353C19.9432 32.4026 20.0175 32.4086 20.0671 32.3665C20.2865 32.1802 20.4871 31.9728 20.6661 31.7474L20.6662 31.7474L20.6682 31.7447C20.7389 31.6503 20.7713 31.5556 20.7684 31.4635C20.7655 31.3725 20.7284 31.2984 20.6863 31.2434C20.6446 31.1889 20.595 31.1492 20.5579 31.1238C20.539 31.1108 20.5224 31.1009 20.5101 31.0941C20.504 31.0906 20.4989 31.0879 20.4951 31.086L20.4903 31.0836L20.4887 31.0828L20.4881 31.0825L20.4879 31.0824L20.4878 31.0823C20.4877 31.0823 20.4877 31.0823 20.4373 31.1887L20.4877 31.0823C20.4859 31.0815 20.4842 31.0807 20.4824 31.08C20.0879 30.9164 19.8935 30.8039 19.7997 30.7364C19.7553 30.7044 19.7365 30.6846 19.7301 30.6768ZM20.3863 31.2948C20.3863 31.2948 20.3863 31.2948 20.3864 31.2948L20.3863 31.2948Z" fill="#047857"/>
<path fill-rule="evenodd" clip-rule="evenodd" d="M13.8888 31.401C13.9108 31.4622 13.879 31.5296 13.8178 31.5516C13.6856 31.599 13.5771 31.696 13.5153 31.8221C13.4593 31.9449 13.4327 32.0213 13.4202 32.0648C13.414 32.0865 13.4115 32.0994 13.4105 32.1052C13.4103 32.1065 13.4102 32.1074 13.4101 32.108C13.4101 32.108 13.4101 32.108 13.4101 32.108C13.41 32.1085 13.41 32.1088 13.41 32.1088C13.41 32.1088 13.41 32.1087 13.41 32.1086L13.4102 32.1065L13.4102 32.1045L13.4102 32.1033L13.4103 32.1026L13.4103 32.1023M13.2925 32.1019C13.1748 32.1019 13.1748 32.1019 13.1748 32.1018L13.1748 32.1016L13.1748 32.1012L13.1748 32.1005L13.1748 32.099L13.175 32.0956C13.1751 32.0933 13.1752 32.0907 13.1755 32.0878C13.176 32.0821 13.1768 32.0752 13.1782 32.0671C13.1809 32.0508 13.1856 32.0289 13.1939 31.9999C13.2105 31.9421 13.2419 31.8539 13.3017 31.7229L13.3029 31.7202L13.303 31.7202C13.3916 31.5383 13.5478 31.3983 13.7383 31.33C13.7995 31.308 13.8669 31.3398 13.8888 31.401" fill="#047857"/>
<path fill-rule="evenodd" clip-rule="evenodd" d="M20.575 31.9697C20.6882 31.8288 20.8741 31.6541 21.1162 31.6541C21.3249 31.6541 21.5759 31.7343 21.7645 31.8076C21.861 31.8451 21.9454 31.8826 22.0057 31.9107C22.0359 31.9247 22.0602 31.9365 22.077 31.9448C22.0854 31.949 22.092 31.9523 22.0966 31.9546L22.1018 31.9572L22.1033 31.958L22.1037 31.9582C22.1037 31.9582 22.1039 31.9583 22.0513 32.0601L22.1037 31.9582C22.1614 31.988 22.1843 32.0592 22.1545 32.1169C22.1246 32.1747 22.0536 32.1973 21.9959 32.1675C21.9958 32.1675 21.9959 32.1675 21.9959 32.1675L21.9947 32.1669L21.9903 32.1647C21.9864 32.1627 21.9805 32.1598 21.9728 32.156C21.9574 32.1484 21.9348 32.1374 21.9063 32.1241C21.8494 32.0976 21.7698 32.0623 21.6792 32.0271C21.4934 31.9548 21.2777 31.8895 21.1162 31.8895C20.9883 31.8895 20.8636 31.9864 20.7586 32.1171C20.7089 32.179 20.6693 32.2415 20.642 32.2889C20.6284 32.3124 20.6181 32.3319 20.6113 32.3452C20.6079 32.3519 20.6054 32.357 20.6038 32.3603L20.6021 32.3638L20.6018 32.3644C20.5745 32.4234 20.5045 32.4491 20.4455 32.4218C20.3865 32.3945 20.3608 32.3246 20.3881 32.2656L20.495 32.315C20.3881 32.2656 20.3881 32.2656 20.3881 32.2656L20.3883 32.2652L20.3885 32.2647L20.3893 32.263L20.3919 32.2575C20.3942 32.2528 20.3975 32.2463 20.4016 32.2381C20.41 32.2217 20.4222 32.1987 20.438 32.1713C20.4694 32.1169 20.5157 32.0436 20.575 31.9697Z" fill="#047857"/>
<path fill-rule="evenodd" clip-rule="evenodd" d="M18.5853 19.9048C18.6503 19.9048 18.703 19.9575 18.703 20.0225V27.2335C18.703 27.2985 18.6503 27.3512 18.5853 27.3512C18.5202 27.3512 18.4675 27.2985 18.4675 27.2335V20.0225C18.4675 19.9575 18.5202 19.9048 18.5853 19.9048Z" fill="#047857"/>
<path fill-rule="evenodd" clip-rule="evenodd" d="M18.8612 24.8293C18.9262 24.8288 18.9793 24.8812 18.9797 24.9462L19.0043 28.5636C19.0048 28.6286 18.9524 28.6816 18.8874 28.6821C18.8224 28.6825 18.7693 28.6302 18.7689 28.5652L18.7443 24.9478C18.7438 24.8828 18.7962 24.8297 18.8612 24.8293Z" fill="#047857"/>
<path fill-rule="evenodd" clip-rule="evenodd" d="M18.5894 27.5648C18.6544 27.5671 18.7053 27.6216 18.703 27.6866L18.7027 27.6944L18.702 27.7174C18.7014 27.7374 18.7005 27.7667 18.6996 27.8034C18.6976 27.8768 18.6953 27.9799 18.6938 28.0986C18.6907 28.3367 18.6908 28.6353 18.7029 28.8828C18.7135 29.0992 18.8167 29.2765 18.9236 29.4035C18.9766 29.4665 19.029 29.5153 19.0679 29.5482C19.0873 29.5645 19.1032 29.5768 19.1139 29.5847C19.1192 29.5887 19.1232 29.5916 19.1257 29.5933L19.1283 29.5951C19.1283 29.5951 19.1284 29.5952 19.1283 29.5951M19.1283 29.5951C19.1824 29.6312 19.1972 29.7044 19.1611 29.7585C19.1251 29.8126 19.052 29.8272 18.9979 29.7911L19.0631 29.6933C18.9979 29.7911 18.9979 29.7912 18.9979 29.7911L18.9975 29.7909L18.997 29.7905L18.9954 29.7895L18.9904 29.786C18.9863 29.7831 18.9805 29.779 18.9734 29.7737C18.9593 29.7632 18.9395 29.7479 18.9161 29.7281C18.8692 29.6886 18.8068 29.6304 18.7434 29.5551C18.6175 29.4054 18.4818 29.1804 18.4677 28.8943C18.4553 28.6394 18.4553 28.335 18.4584 28.0956C18.4599 27.9756 18.4623 27.8714 18.4642 27.7972C18.4652 27.7601 18.466 27.7305 18.4667 27.7101L18.4674 27.6866L18.4677 27.6785C18.4699 27.6136 18.5245 27.5626 18.5894 27.5648" fill="#047857"/>
<path fill-rule="evenodd" clip-rule="evenodd" d="M18.1329 19.4023C18.1979 19.4023 18.2506 19.455 18.2506 19.5201V22.0324C18.2506 22.0974 18.1979 22.1501 18.1329 22.1501C18.0678 22.1501 18.0151 22.0974 18.0151 22.0324V19.5201C18.0151 19.455 18.0678 19.4023 18.1329 19.4023Z" fill="#047857"/>
<path fill-rule="evenodd" clip-rule="evenodd" d="M17.4888 15.4247C17.5296 15.3741 17.6037 15.3662 17.6543 15.407C17.7049 15.4478 17.7128 15.522 17.672 15.5726L17.5806 15.4988C17.672 15.5726 17.672 15.5725 17.672 15.5726L17.6717 15.5729L17.6713 15.5735L17.6697 15.5753L17.6644 15.5817C17.6599 15.5872 17.6533 15.5949 17.6448 15.6045C17.6278 15.6239 17.6031 15.6511 17.5714 15.6837C17.508 15.7488 17.416 15.836 17.3008 15.9249C17.0725 16.1012 16.7427 16.2923 16.358 16.3197C15.9794 16.3467 15.6446 16.2384 15.4075 16.1263C15.2884 16.0701 15.1924 16.0121 15.1258 15.968C15.0925 15.9459 15.0664 15.9272 15.0483 15.9137C15.0393 15.907 15.0323 15.9016 15.0274 15.8978L15.0215 15.8932L15.0198 15.8918L15.0193 15.8913L15.019 15.8911C15.019 15.8911 15.019 15.8911 15.0935 15.8L15.019 15.8911C14.9687 15.8499 14.9613 15.7757 15.0024 15.7254C15.0436 15.6751 15.1177 15.6677 15.168 15.7088L15.1687 15.7094L15.1725 15.7123C15.176 15.7151 15.1815 15.7193 15.189 15.7249C15.2039 15.736 15.2264 15.7522 15.2559 15.7718C15.3149 15.8109 15.401 15.8629 15.5081 15.9135C15.7231 16.0151 16.0164 16.108 16.3413 16.0849C16.6603 16.0622 16.9459 15.9015 17.1569 15.7385C17.2615 15.6578 17.3452 15.5784 17.4027 15.5194C17.4313 15.49 17.4533 15.4658 17.4679 15.4491C17.4752 15.4408 17.4806 15.4345 17.4842 15.4303L17.4879 15.4257L17.4888 15.4247ZM15.168 15.7088C15.168 15.7088 15.168 15.7088 15.168 15.7088V15.7088Z" fill="#047857"/>
<path fill-rule="evenodd" clip-rule="evenodd" d="M13.622 16.7382C13.6739 16.6989 13.7477 16.7092 13.787 16.7611C14.1024 17.1782 14.2611 17.693 14.2352 18.2153L14.2809 20.0195C14.2826 20.0845 14.2312 20.1386 14.1662 20.1402C14.1012 20.1418 14.0472 20.0905 14.0456 20.0255L13.9997 18.2168C13.9997 18.2138 13.9997 18.2108 13.9999 18.2078C14.024 17.7393 13.8821 17.2773 13.5991 16.9031C13.5599 16.8512 13.5702 16.7774 13.622 16.7382Z" fill="#047857"/>
<path fill-rule="evenodd" clip-rule="evenodd" d="M13.9261 30.5963C13.9261 30.5964 13.9261 30.5965 13.8138 30.6247L13.9261 30.5965C13.9419 30.6596 13.9036 30.7235 13.8406 30.7393C13.7785 30.7549 13.7156 30.718 13.6985 30.6567C13.6984 30.6565 13.6983 30.656 13.6981 30.6555C13.6971 30.653 13.695 30.6482 13.6915 30.6424C13.6846 30.631 13.6727 30.6163 13.6525 30.6047C13.6168 30.5841 13.5157 30.5521 13.2822 30.657C13.0467 30.7628 12.7056 31.0111 12.3915 31.2687C12.0789 31.5251 11.8083 31.7781 11.7145 31.8839C11.6713 31.9325 11.5969 31.9369 11.5483 31.8938C11.4996 31.8506 11.4952 31.7762 11.5383 31.7276C11.6448 31.6077 11.9268 31.3454 12.2422 31.0866C12.5562 30.8291 12.9187 30.5622 13.1857 30.4422C13.4546 30.3213 13.6425 30.3271 13.7702 30.4007C13.8317 30.4362 13.8701 30.4827 13.893 30.5207C13.9045 30.5396 13.9122 30.5567 13.9174 30.5698C13.9199 30.5763 13.9219 30.582 13.9233 30.5865C13.924 30.5888 13.9246 30.5908 13.925 30.5924L13.9257 30.5947L13.9259 30.5957L13.926 30.5961L13.9261 30.5963Z" fill="#047857"/>
<path d="M12.4725 11.0283C12.4725 11.0283 13.7737 12.1622 15.2734 10.895L12.4725 11.0283Z" fill="#047857"/>
<path fill-rule="evenodd" clip-rule="evenodd" d="M15.3634 10.8191C15.4054 10.8687 15.3991 10.943 15.3494 10.985C14.5684 11.6449 13.8288 11.6845 13.2827 11.5512C13.0123 11.4853 12.7919 11.3777 12.6391 11.2868C12.5626 11.2413 12.5026 11.1997 12.4613 11.1691C12.4407 11.1538 12.4247 11.1413 12.4136 11.1323C12.408 11.1278 12.4037 11.1242 12.4006 11.1216L12.397 11.1185L12.3959 11.1176L12.3955 11.1173L12.3954 11.1171C12.3953 11.1171 12.3952 11.117 12.4715 11.0295L12.3952 11.117C12.3462 11.0743 12.3411 11 12.3838 10.9509C12.4265 10.902 12.5008 10.8968 12.5498 10.9394L12.5501 10.9397L12.5521 10.9414C12.554 10.943 12.5572 10.9456 12.5616 10.9491C12.5702 10.9562 12.5837 10.9667 12.6015 10.98C12.6372 11.0064 12.6906 11.0435 12.7595 11.0845C12.8976 11.1666 13.0962 11.2634 13.3385 11.3225C13.8179 11.4394 14.4788 11.4124 15.1975 10.8051C15.2472 10.7632 15.3214 10.7694 15.3634 10.8191Z" fill="#047857"/>
<path d="M10.5706 13.23C10.5706 13.23 11.1384 13.931 11.8717 13.0967L10.5706 13.23Z" fill="#047857"/>
<path fill-rule="evenodd" clip-rule="evenodd" d="M11.9493 13.0083C11.9982 13.0512 12.003 13.1256 11.96 13.1744C11.7665 13.3946 11.5767 13.5216 11.3958 13.5813C11.2139 13.6414 11.0492 13.6306 10.9118 13.5888C10.7761 13.5476 10.6688 13.4768 10.5963 13.4177C10.5598 13.388 10.5314 13.3606 10.5117 13.3403C10.5018 13.3301 10.4941 13.3216 10.4887 13.3154C10.4859 13.3123 10.4837 13.3097 10.4821 13.3078L10.4801 13.3054L10.4795 13.3046L10.4792 13.3043L10.4791 13.3042C10.4791 13.3041 10.479 13.304 10.5705 13.23L10.479 13.304C10.4381 13.2535 10.4459 13.1794 10.4964 13.1385C10.5468 13.0976 10.6207 13.1053 10.6617 13.1555L10.6621 13.1561L10.6654 13.1599C10.6686 13.1635 10.6739 13.1693 10.681 13.1766C10.6952 13.1914 10.7168 13.2122 10.745 13.2352C10.8019 13.2815 10.8824 13.3338 10.9803 13.3636C11.0766 13.3928 11.1913 13.4009 11.3221 13.3577C11.4539 13.3142 11.6101 13.2159 11.7832 13.019C11.8261 12.9701 11.9005 12.9654 11.9493 13.0083Z" fill="#047857"/>
<path d="M9.9705 14.1975C9.9705 14.1975 10.3041 15.0649 9.23633 14.9614L9.9705 14.1975Z" fill="#047857"/>
<path fill-rule="evenodd" clip-rule="evenodd" d="M9.92818 14.0876C9.98887 14.0643 10.057 14.0946 10.0803 14.1553L9.97043 14.1975C10.0803 14.1553 10.0803 14.1553 10.0804 14.1554L10.0804 14.1555L10.0805 14.1559L10.0809 14.1568L10.0819 14.1596C10.0828 14.1619 10.0839 14.165 10.0852 14.1689C10.0879 14.1766 10.0914 14.1874 10.0955 14.2009C10.1035 14.2277 10.1135 14.2654 10.1217 14.3103C10.1378 14.3983 10.1486 14.5219 10.1181 14.6464C10.0866 14.7746 10.0108 14.9032 9.85907 14.9884C9.71141 15.0713 9.50498 15.1057 9.2249 15.0786C9.16019 15.0723 9.11281 15.0148 9.11909 14.95C9.12536 14.8853 9.18291 14.838 9.24763 14.8442C9.50141 14.8688 9.65368 14.8337 9.74378 14.7831C9.82978 14.7348 9.87083 14.6659 9.88942 14.5902C9.90893 14.5108 9.90313 14.424 9.89007 14.3526C9.88369 14.3178 9.87594 14.2886 9.86989 14.2683C9.86688 14.2583 9.86433 14.2506 9.86263 14.2456L9.86078 14.2404L9.86055 14.2398C9.86054 14.2398 9.86053 14.2397 9.86051 14.2397M9.92818 14.0876C9.86753 14.111 9.83725 14.179 9.86051 14.2397L9.92818 14.0876Z" fill="#047857"/>
<path d="M9.30334 15.8322C9.30334 15.8322 9.97046 16.002 9.70311 16.6335L9.30334 15.8322Z" fill="#047857"/>
<path fill-rule="evenodd" clip-rule="evenodd" d="M9.18921 15.8032C9.20524 15.7402 9.26932 15.7021 9.33233 15.7181L9.3033 15.8322C9.33233 15.7181 9.33239 15.7182 9.33245 15.7182L9.33258 15.7182L9.33289 15.7183L9.33371 15.7185L9.33605 15.7191L9.3435 15.7212C9.34965 15.723 9.35812 15.7256 9.36849 15.729C9.3892 15.7359 9.41779 15.7463 9.45093 15.7609C9.51648 15.7899 9.60362 15.837 9.68268 15.909C9.76236 15.9815 9.83622 16.0816 9.86791 16.2146C9.89974 16.3482 9.88614 16.503 9.81147 16.6794C9.78612 16.7392 9.71704 16.7672 9.65716 16.7419C9.59729 16.7165 9.5693 16.6474 9.59465 16.5876C9.65366 16.4482 9.65693 16.345 9.63887 16.2691C9.62067 16.1927 9.57788 16.132 9.5242 16.0831C9.4699 16.0337 9.40698 15.9989 9.35579 15.9763C9.33057 15.9652 9.30913 15.9574 9.29439 15.9525C9.28705 15.9501 9.28145 15.9484 9.27795 15.9474L9.27436 15.9464L9.27386 15.9462C9.27385 15.9462 9.27388 15.9462 9.27395 15.9462L9.27408 15.9463L9.27417 15.9463C9.21122 15.9302 9.17319 15.8662 9.18921 15.8032Z" fill="#047857"/>
<path d="M16.1426 11.6623C16.1426 11.6623 16.1426 11.9959 16.8097 11.9959C17.4768 11.9959 17.3105 11.2617 17.3105 11.2617" fill="#047857"/>
<path fill-rule="evenodd" clip-rule="evenodd" d="M17.2845 11.1469C17.3479 11.1325 17.411 11.1723 17.4253 11.2357L17.3105 11.2617C17.4253 11.2357 17.4253 11.2357 17.4253 11.2358L17.4254 11.2359L17.4254 11.2362L17.4256 11.237L17.4261 11.2394L17.4277 11.2473C17.429 11.2538 17.4307 11.263 17.4326 11.2745C17.4363 11.2973 17.4406 11.3293 17.4435 11.3676C17.4492 11.4432 17.4495 11.5477 17.4251 11.6549C17.4006 11.7624 17.3496 11.8795 17.2472 11.9695C17.1434 12.0609 16.9991 12.1136 16.8097 12.1136C16.458 12.1136 16.256 12.0256 16.1428 11.9123C16.0867 11.8563 16.0569 11.7982 16.0414 11.7517C16.0337 11.7286 16.0296 11.7086 16.0274 11.6933C16.0263 11.6856 16.0257 11.6791 16.0253 11.6739C16.0252 11.6713 16.025 11.669 16.025 11.6671L16.0249 11.6644L16.0249 11.6633L16.0249 11.6628L16.0249 11.6625C16.0249 11.6624 16.0249 11.6623 16.1401 11.6623H16.0249C16.0249 11.5973 16.0776 11.5446 16.1426 11.5446C16.2064 11.5446 16.2583 11.5953 16.2603 11.6586C16.2603 11.6589 16.2604 11.6594 16.2605 11.66C16.2609 11.6629 16.262 11.669 16.2647 11.6772C16.2701 11.6932 16.2819 11.7185 16.3093 11.7458C16.3628 11.7994 16.4943 11.8781 16.8097 11.8781C16.9539 11.8781 17.0391 11.8391 17.0917 11.7928C17.1457 11.7452 17.1782 11.6787 17.1955 11.6026C17.2129 11.5263 17.2133 11.4473 17.2087 11.3852C17.2064 11.3547 17.2029 11.3294 17.2001 11.312C17.1987 11.3034 17.1975 11.2968 17.1967 11.2926L17.1958 11.2882L17.1957 11.2877C17.1957 11.2877 17.1957 11.2877 17.1957 11.2876M17.2845 11.1469C17.2211 11.1612 17.1814 11.2242 17.1957 11.2876L17.2845 11.1469Z" fill="#047857"/>
<path d="M19.445 10.0285C19.445 10.0285 19.3449 10.7626 20.1792 10.996C21.0135 11.2295 21.5134 10.4282 21.5134 10.4282" fill="#047857"/>
<path fill-rule="evenodd" clip-rule="evenodd" d="M19.5617 10.0442C19.5617 10.0442 19.5617 10.0442 19.5617 10.0442L19.5617 10.0442L19.5618 10.0441L19.5618 10.044L19.5618 10.0438C19.5618 10.0438 19.5618 10.044 19.5617 10.0443L19.5613 10.0482C19.561 10.052 19.5604 10.0583 19.56 10.0668C19.5591 10.0838 19.5585 10.1092 19.5601 10.1409C19.5633 10.2045 19.5752 10.2912 19.6096 10.3836C19.6765 10.5631 19.8321 10.7767 20.211 10.8827C20.5823 10.9866 20.8787 10.8622 21.0888 10.7053C21.1943 10.6266 21.2764 10.5406 21.3321 10.4741C21.3599 10.441 21.3808 10.4131 21.3945 10.3938C21.4014 10.3842 21.4065 10.3768 21.4097 10.372L21.4131 10.3668L21.4136 10.3659L21.4137 10.3658C21.4481 10.3107 21.5207 10.2939 21.5758 10.3283C21.631 10.3628 21.6478 10.4354 21.6134 10.4905L21.5135 10.4282C21.6134 10.4905 21.6133 10.4906 21.6133 10.4906L21.6132 10.4907L21.6131 10.491L21.6126 10.4918L21.611 10.4942L21.6057 10.5024C21.6012 10.5092 21.5947 10.5187 21.5862 10.5305C21.5694 10.5542 21.5447 10.587 21.5126 10.6254C21.4485 10.7019 21.3534 10.8016 21.2297 10.894C20.9813 11.0794 20.6105 11.2389 20.1475 11.1094C19.6921 10.982 19.4806 10.7118 19.389 10.4658C19.3442 10.3455 19.329 10.2341 19.3249 10.1527C19.3228 10.1119 19.3236 10.0782 19.3249 10.0541C19.3255 10.0421 19.3263 10.0324 19.327 10.0253C19.3273 10.0218 19.3277 10.019 19.3279 10.0168L19.3282 10.0142L19.3284 10.0132L19.3284 10.0128L19.3284 10.0127C19.3284 10.0126 19.3284 10.0125 19.4448 10.0284L19.3284 10.0125C19.3372 9.94813 19.3966 9.90303 19.461 9.91182C19.5254 9.9206 19.5705 9.97987 19.5617 10.0442C19.5617 10.0442 19.5617 10.0442 19.5617 10.0442Z" fill="#047857"/>
<path d="M21.4167 13.9972C21.4167 13.9972 20.983 14.3647 21.3165 14.7984C21.6501 15.2322 22.0498 15.065 22.0498 15.065" fill="#047857"/>
<path fill-rule="evenodd" clip-rule="evenodd" d="M21.4931 14.0868C21.4931 14.0868 21.493 14.0869 21.4929 14.0869L21.4908 14.0888C21.4887 14.0907 21.4853 14.0939 21.4808 14.0983C21.4717 14.1071 21.4585 14.1206 21.4434 14.1382C21.4128 14.1738 21.3761 14.224 21.3486 14.2841C21.2962 14.3989 21.2748 14.5511 21.4099 14.7267C21.5557 14.9163 21.7083 14.9674 21.8186 14.9771C21.8757 14.9821 21.9243 14.9761 21.9582 14.9691C21.975 14.9655 21.9879 14.9618 21.996 14.9592C22 14.9579 22.0028 14.9569 22.0043 14.9564L22.0053 14.956C22.0651 14.9315 22.1335 14.9599 22.1585 15.0195C22.1836 15.0795 22.1553 15.1485 22.0953 15.1736L22.0499 15.065C22.0953 15.1736 22.0952 15.1736 22.0952 15.1736L22.095 15.1737L22.0947 15.1738L22.0939 15.1741L22.092 15.1749L22.0863 15.1771C22.0817 15.1788 22.0756 15.1809 22.0681 15.1834C22.053 15.1882 22.032 15.1942 22.0062 15.1996C21.9547 15.2103 21.8825 15.219 21.798 15.2116C21.625 15.1965 21.411 15.1143 21.2232 14.8702C21.0247 14.6121 21.0534 14.3637 21.1344 14.1863C21.1737 14.1003 21.2246 14.0315 21.2649 13.9847C21.2852 13.961 21.3033 13.9424 21.3166 13.9295C21.3233 13.923 21.3289 13.9178 21.333 13.9141L21.338 13.9097L21.3396 13.9083L21.3402 13.9078L21.3404 13.9076L21.3405 13.9075C21.3405 13.9074 21.3406 13.9074 21.4167 13.9972L21.3406 13.9074C21.3902 13.8654 21.4645 13.8715 21.5065 13.9211" fill="#047857"/>
<path d="M22.3504 16.2999C22.3504 16.2999 21.8191 15.8127 21.3828 16.4696C20.9465 17.1266 21.7503 17.6044 21.7503 17.6044" fill="#047857"/>
<path fill-rule="evenodd" clip-rule="evenodd" d="M22.4299 16.213C22.4299 16.2131 22.43 16.2131 22.3532 16.2969L22.43 16.2131C22.4779 16.2571 22.4811 16.3315 22.4372 16.3795C22.3934 16.4273 22.3191 16.4306 22.2712 16.387C22.2711 16.3869 22.271 16.3868 22.2709 16.3867L22.3504 16.3C22.2709 16.3867 22.2709 16.3867 22.2709 16.3867L22.271 16.3868L22.2711 16.3869L22.2709 16.3867L22.268 16.3842C22.2651 16.3817 22.2605 16.3779 22.2542 16.3729C22.2415 16.363 22.2225 16.349 22.1982 16.3338C22.149 16.3031 22.0819 16.2697 22.0058 16.2536C21.931 16.2377 21.8488 16.2388 21.7637 16.2745C21.6783 16.3104 21.5801 16.3854 21.4809 16.5348C21.3858 16.6781 21.3623 16.8041 21.3733 16.9121C21.3846 17.0226 21.4331 17.1245 21.4983 17.2142C21.5634 17.3039 21.6419 17.3767 21.7053 17.4277C21.7368 17.453 21.7639 17.4724 21.7828 17.4852C21.7923 17.4916 21.7996 17.4964 21.8044 17.4994L21.8096 17.5027L21.8105 17.5032L21.8106 17.5033C21.8664 17.5365 21.8848 17.6087 21.8515 17.6646C21.8183 17.7205 21.7461 17.7388 21.6902 17.7056L21.7504 17.6044C21.6902 17.7056 21.6902 17.7056 21.6901 17.7056L21.69 17.7055L21.6897 17.7053L21.6889 17.7049L21.6865 17.7034L21.6785 17.6984C21.6717 17.6941 21.6622 17.6879 21.6505 17.68C21.6272 17.6641 21.5949 17.6411 21.5579 17.6113C21.4842 17.5521 21.389 17.4645 21.3078 17.3526C21.2265 17.2407 21.1558 17.1 21.1391 16.936C21.1221 16.7697 21.1618 16.5897 21.2848 16.4045C21.4037 16.2254 21.5355 16.115 21.6725 16.0574C21.8097 15.9998 21.9421 15.9994 22.0546 16.0232C22.166 16.0468 22.259 16.0942 22.323 16.1342C22.3554 16.1544 22.3812 16.1734 22.3993 16.1875C22.4084 16.1946 22.4156 16.2006 22.4207 16.205L22.4269 16.2104L22.4289 16.2121L22.4295 16.2127L22.4298 16.2129L22.4299 16.213Z" fill="#047857"/>
<path opacity="0.1" d="M12.4725 11.0283C12.4725 11.0283 13.7737 12.1622 15.2734 10.895L12.4725 11.0283Z" fill="#047857"/>
<path opacity="0.1" d="M10.5706 13.23C10.5706 13.23 11.1384 13.931 11.8717 13.0967L10.5706 13.23Z" fill="#047857"/>
<path opacity="0.1" d="M9.9705 14.1975C9.9705 14.1975 10.3041 15.0649 9.23633 14.9614L9.9705 14.1975Z" fill="#047857"/>
<path opacity="0.1" d="M9.30334 15.8322C9.30334 15.8322 9.97046 16.002 9.70311 16.6335L9.30334 15.8322Z" fill="#047857"/>
<path opacity="0.1" d="M16.1426 11.6623C16.1426 11.6623 16.1426 11.9959 16.8097 11.9959C17.4768 11.9959 17.3105 11.2617 17.3105 11.2617" fill="#047857"/>
<path opacity="0.1" d="M19.445 10.0285C19.445 10.0285 19.3449 10.7626 20.1792 10.996C21.0135 11.2295 21.5134 10.4282 21.5134 10.4282" fill="#047857"/>
<path opacity="0.1" d="M21.4167 13.9972C21.4167 13.9972 20.983 14.3647 21.3165 14.7984C21.6501 15.2322 22.0498 15.065 22.0498 15.065" fill="#047857"/>
<path opacity="0.1" d="M22.3504 16.2999C22.3504 16.2999 21.8191 15.8127 21.3828 16.4696C20.9465 17.1266 21.7503 17.6044 21.7503 17.6044" fill="#047857"/>
<path d="M22.6514 12.9903C22.6514 16.4952 19.8101 19.3365 16.3053 19.3365M22.6514 12.9903C22.6514 9.48547 19.8101 6.6442 16.3053 6.6442M22.6514 12.9903H9.95911M16.3053 19.3365C12.8004 19.3365 9.95911 16.4952 9.95911 12.9903M16.3053 19.3365C17.4736 19.3365 18.4206 16.4952 18.4206 12.9903C18.4206 9.48547 17.4736 6.6442 16.3053 6.6442M16.3053 19.3365C15.137 19.3365 14.1899 16.4952 14.1899 12.9903C14.1899 9.48547 15.137 6.6442 16.3053 6.6442M9.95911 12.9903C9.95911 9.48547 12.8004 6.6442 16.3053 6.6442" stroke="#FAFAFA" stroke-linecap="round" stroke-linejoin="round"/>
</svg>
